<?xml version="1.0" standalone="no"?>
<!DOCTYPE svg PUBLIC "-//W3C//DTD SVG 20010904//EN"
 "http://www.w3.org/TR/2001/REC-SVG-20010904/DTD/svg10.dtd">
<svg version="1.0" xmlns="http://www.w3.org/2000/svg"
 width="280.000000pt" height="280.000000pt" viewBox="0 0 280.000000 280.000000"
 preserveAspectRatio="xMidYMid meet">
<metadata>
Created by potrace 1.14, written by Peter Selinger 2001-2017
</metadata>
<g transform="translate(0.000000,280.000000) scale(0.100000,-0.100000)"
fill="#000000" stroke="none">
<path d="M682 2284 c-53 -20 -96 -44 -158 -89 -18 -13 -26 -14 -61 -1 -58 20
-149 15 -205 -12 -114 -56 -198 -213 -225 -422 -2 -19 -6 -41 -9 -48 -8 -25
-18 -177 -18 -272 0 -148 14 -277 44 -405 6 -27 13 -59 16 -70 8 -41 46 -150
66 -189 118 -233 362 -328 540 -210 l38 24 52 -29 c29 -16 78 -37 109 -45 53
-16 172 -23 214 -13 11 3 34 8 50 12 102 26 224 115 265 194 58 115 23 283
-81 382 l-38 37 30 38 c17 22 35 50 40 63 12 29 19 23 25 -21 11 -82 48 -250
71 -323 34 -106 76 -178 145 -248 115 -116 255 -151 396 -97 17 6 32 16 32 21
0 5 7 9 15 9 8 0 15 5 15 10 0 15 19 12 48 -8 94 -64 252 -90 377 -61 51 12
164 66 201 97 41 34 92 111 99 149 4 21 9 48 11 61 8 39 -15 138 -43 187 -14
26 -44 65 -66 86 -39 39 -39 40 -21 62 11 12 22 24 25 27 22 17 81 154 97 225
14 60 6 258 -12 325 -63 234 -275 486 -468 558 -27 10 -76 16 -133 16 -101 0
-163 -22 -257 -90 -49 -34 -51 -35 -86 -21 -131 50 -281 -20 -355 -167 -15
-30 -38 -96 -51 -145 -22 -88 -23 -90 -36 -63 -78 164 -174 292 -290 384 -130
103 -275 132 -408 82z"/>
</g>
</svg>
