<?xml version="1.0" encoding="UTF-8"?>
<svg width="1468.68137px" height="142.027361px" viewBox="0 0 1468.68137 142.027361" version="1.1" xmlns="http://www.w3.org/2000/svg" xmlns:xlink="http://www.w3.org/1999/xlink">
    <title>Available 6/23/23</title>
    <g id="Page-1" stroke="none" stroke-width="1" fill="none" fill-rule="evenodd">
        <g id="Apple-TV-4K" transform="translate(-416.128005, -2703.713494)" fill="#000000" fill-rule="nonzero">
            <g id="Available-6/23/23" transform="translate(416.128005, 2703.713494)">
                <path d="M96.9758892,48.0690646 C91.3904079,28.5828658 75.1547278,8.66238449 55.597088,8.67741633 C42.0122091,8.67741633 32.7513301,14.2403441 23.1670909,24.1648629 C7.38449149,40.5095833 -6.78506759,75.2162635 3.4910131,115.331704 C8.2887739,134.067785 28.517575,149.241266 40.0776961,130.740186 C43.8489756,124.690347 45.2646154,117.465508 44.0576557,110.439949 C42.6814944,100.724111 42.8713733,90.8503499 44.6235347,81.1946698 C44.685575,80.8261885 44.8942552,80.4990675 45.2006961,80.2847476 C45.507137,80.0704277 45.8868978,79.9877072 46.2534972,80.0572663 C47.0167768,80.2264652 47.5036961,80.9747044 47.3514165,81.7417447 C44.5614972,97.2291856 46.8005779,113.205425 53.7415376,127.327984 C70.1708575,151.136304 93.2346961,139.982263 100.745296,114.963223 C106.383417,96.2459436 104.868137,75.6054248 96.9758978,48.0690646 L96.9758892,48.0690646 Z M51.6415779,40.6543441 C46.2986183,45.875105 45.2439381,54.0831856 49.0979381,60.4827044 C49.5510188,61.125664 49.4156586,62.0111453 48.7933791,62.4924248 C48.4982177,62.7161453 48.1240967,62.8120243 47.7574972,62.7537447 C47.3908978,62.6973441 47.0618978,62.4924248 46.8494569,62.1878658 C41.796016,55.0645459 43.8076154,44.4369061 49.7126961,38.5957447 C49.974016,38.330664 50.3330967,38.1859032 50.7034569,38.193422 C51.0756961,38.2009407 51.4272552,38.3607419 51.6791745,38.6352231 C52.2036932,39.2123845 52.1848921,40.0997447 51.6359324,40.6543441 L51.6415779,40.6543441 Z" id="Shape"></path>
                <path d="M150.164711,58.377105 C148.640031,69.373226 149.168311,80.559226 151.72323,91.3635862 C152.26091,93.905347 153.276109,96.3230271 154.71619,98.4869061 C154.94555,98.7595055 155.043311,99.1185862 154.985031,99.4701453 C154.926751,99.8198254 154.716192,100.128145 154.411633,100.312384 C153.770553,100.744785 152.905751,100.624465 152.403792,100.036024 C150.743751,97.597664 149.566873,94.8641453 148.935192,91.9839839 C146.303192,80.8731828 145.754233,69.3713441 147.316512,58.0593845 C148.346751,49.0053038 151.337832,40.2839839 156.082953,32.502664 C147.177394,11.6609839 99.9837544,17.3743038 106.911556,58.8790646 C110.365115,79.5759839 117.238394,111.253984 132.451354,126.256384 C147.966994,141.563344 175.730832,139.781105 181.132071,119.394384 C188.187711,92.7717044 199.572991,73.3419032 205.049432,55.4311424 C214.095991,25.8211424 187.83991,16.0169436 170.028789,22.6721424 C157.73359,29.7127419 152.11427,44.0477419 150.164711,58.3752231 L150.164711,58.377105 Z" id="Path"></path>
                <path d="M297.071272,40.5866669 C294.437393,32.2357072 287.421232,26.0110271 278.816471,24.3867072 C264.18067,21.8769061 249.12939,24.7307447 236.428111,32.4218254 C222.51235,40.8555055 212.679949,54.6396669 209.233909,70.5407072 C203.75371,92.7171885 211.918549,116.034828 230.03799,129.946828 C238.77435,136.489229 250.70107,136.76371 259.726949,130.62739 C259.66867,126.613589 260.742151,122.66371 262.825191,119.230831 C263.124111,118.798431 263.633592,118.563431 264.156232,118.617949 C264.678871,118.672468 265.13007,119.007108 265.331232,119.492148 C265.534272,119.977189 265.457191,120.53367 265.128191,120.943508 C263.67871,123.284108 262.834589,125.949946 262.67667,128.698506 C262.954909,140.431586 288.23339,145.082707 296.059831,125.573946 C306.670552,98.3007851 307.029632,68.104226 297.071272,40.5866669 Z M266.323871,57.4935055 C248.41875,61.9453441 245.51603,78.5852231 248.22699,89.7449032 C248.783471,93.5161828 250.749952,96.9359032 253.731632,99.3141021 C254.197871,99.5528629 254.496791,100.024742 254.51371,100.549261 C254.52875,101.073779 254.25803,101.564459 253.806831,101.82954 C253.35375,102.0965 252.793511,102.094621 252.344191,101.825782 C248.65939,99.056543 246.187191,94.9731828 245.438952,90.4254623 C242.427191,78.0513009 245.76607,59.6592606 265.630151,54.7223816 C266.39907,54.5306208 267.17739,54.9987419 267.369151,55.7657822 C267.560912,56.5347015 267.092791,57.3149004 266.323871,57.5047793 L266.323871,57.4935055 Z" id="Shape"></path>
                <path d="M348.117311,52.4513441 C336.156752,48.2702231 311.624631,45.7942635 309.12987,76.7428225 C306.91523,104.271661 313.389951,133.133422 323.733712,136.197823 C328.747671,138.102263 339.98819,137.914263 350.04055,133.396624 C362.691069,127.709624 349.410749,96.4809436 353.766709,91.7884623 C363.437429,78.6867419 357.908349,55.8804623 348.117308,52.4513413 L348.117311,52.4513441 Z M341.441429,4.50006174 C325.62123,-0.61165872 306.704671,12.5013413 309.065951,26.3701021 C310.55115,35.089543 319.52251,41.3330243 326.29615,44.5891856 C352.40747,57.1344248 367.85355,13.0315055 341.441429,4.50006461 L341.441429,4.50006174 Z" id="Shape"></path>
                <path d="M401.189809,5.0979061 C389.02057,-2.42397287 370.459331,-7.94929275 365.434092,36.7589868 C362.666731,65.8726669 363.821051,95.2269868 368.863213,124.034226 C372.234051,140.668465 399.744092,142.428145 403.052893,128.147664 C407.220852,110.137263 410.020172,56.4049839 408.677852,28.272664 C408.279293,19.8634248 409.414812,10.1814248 401.189812,5.0979061 L401.189809,5.0979061 Z" id="Path"></path>
                <path d="M502.555272,40.5866669 C499.921393,32.2357072 492.905232,26.0110271 484.300471,24.3867072 C469.66467,21.8769061 454.61339,24.7307447 441.912111,32.4218254 C427.99635,40.8555055 418.163949,54.6396669 414.717909,70.5407072 C409.23771,92.7171885 417.402549,116.034828 435.52199,129.946828 C444.25835,136.489229 456.18507,136.76371 465.210949,130.62739 C465.15267,126.613589 466.226151,122.66371 468.309191,119.230831 C468.608111,118.798431 469.117592,118.563431 469.640232,118.617949 C470.162871,118.672468 470.61407,119.007108 470.815232,119.492148 C471.018272,119.977189 470.941191,120.53367 470.612191,120.943508 C469.16271,123.284108 468.318589,125.949946 468.16067,128.698506 C468.438909,140.431586 493.71739,145.082707 501.543831,125.573946 C512.154552,98.3007851 512.513632,68.104226 502.555272,40.5866669 Z M471.807871,57.4935055 C453.90275,61.9453441 451.00003,78.5852231 453.71099,89.7449032 C454.267471,93.5161828 456.233952,96.9359032 459.215632,99.3141021 C459.681871,99.5528629 459.980791,100.024742 459.99771,100.549261 C460.01275,101.073779 459.74203,101.564459 459.290831,101.82954 C458.83775,102.0965 458.277511,102.094621 457.828191,101.825782 C454.14339,99.056543 451.671191,94.9731828 450.922952,90.4254623 C447.911191,78.0513009 451.25007,59.6592606 471.114151,54.7223816 C471.88307,54.5306208 472.66139,54.9987419 472.853151,55.7657822 C473.044912,56.5347015 472.576791,57.3149004 471.807871,57.5047793 L471.807871,57.4935055 Z" id="Shape"></path>
                <path d="M581.284259,25.336105 C574.862179,22.2265862 567.665539,21.0779061 560.594859,22.0348254 C549.95594,24.1084652 541.078579,31.4047447 536.985819,41.4420646 C536.666219,42.1639839 535.822098,42.491105 535.098297,42.1752663 C534.374496,41.8575459 534.041735,41.0171856 534.355695,40.2915055 C538.367614,30.271105 546.878375,22.7341856 557.310496,19.9611856 C555.834695,5.33478507 546.607654,1.09726633 536.468816,3.16902713 C524.835375,5.35922598 516.279496,15.3307447 515.880937,27.1615833 C513.282775,59.7476237 512.113415,89.7392635 524.156695,117.065065 C535.718695,143.315506 571.510136,140.677866 582.573937,134.103506 C598.978816,124.333145 607.435055,106.005024 609.533136,87.210664 C612.509176,60.5767044 600.163216,34.4860646 581.284257,25.336105 L581.284259,25.336105 Z M571.222496,101.790065 C570.906657,102.517624 570.060657,102.852263 569.333098,102.538304 C560.812937,98.8704248 555.031937,88.2089436 554.274297,77.1827447 C553.516657,66.1565459 557.831257,54.8107447 569.207136,49.9246237 C569.932816,49.6275833 570.760015,49.9678629 571.070213,50.6860243 C571.378533,51.4041856 571.055173,52.2389061 570.342654,52.5622663 C560.177493,56.9276266 556.472012,67.1115862 557.13753,76.9909868 C557.804931,86.8703874 562.826412,96.6031482 570.470493,99.9006669 C571.198052,100.216506 571.534571,101.060627 571.22249,101.790067 L571.222496,101.790065 Z" id="Shape"></path>
                <path d="M651.417809,5.0979061 C639.24857,-2.42397287 620.687331,-7.94929275 615.662092,36.7589868 C612.894731,65.8726669 614.049051,95.2269868 619.091213,124.034226 C622.462051,140.668465 649.972092,142.428145 653.280893,128.147664 C657.448852,110.137263 660.248172,56.4049839 658.905852,28.272664 C658.507293,19.8634248 659.642812,10.1814248 651.417812,5.0979061 L651.417809,5.0979061 Z" id="Path"></path>
                <path d="M750.364482,73.4678658 C746.388283,82.7155862 739.413482,90.3540271 730.566202,95.1555459 C718.214603,102.485667 702.834323,102.436788 690.531603,95.0239493 C689.860441,94.5971885 689.661162,93.7041885 690.089802,93.0330271 C690.516562,92.3599868 691.407684,92.1625862 692.080724,92.589347 C703.497963,99.4325459 717.752124,99.4457072 729.182525,92.6231885 C741.351764,86.2086294 749.403805,74.022468 750.531805,60.3116294 C750.544966,60.1048283 750.603245,59.9055487 750.701006,59.7231885 C750.261087,45.8356294 744.025127,32.7658686 733.508407,23.685468 C714.911447,9.12862943 689.728848,17.458909 675.230289,39.0525891 C662.598568,57.8657505 659.082969,82.0162317 669.845969,107.178151 C676.578248,122.92503 694.186329,135.940269 709.51209,136.545629 C736.006928,137.592791 755.088928,124.30871 759.747568,95.3924306 C762.208488,80.1343499 753.923326,74.9455487 750.364488,73.4678686 L750.364482,73.4678658 Z M711.756807,53.4815891 C712.159127,52.7972692 713.040848,52.567909 713.725168,52.9702289 C722.245329,57.9935891 722.40513,68.9577505 718.65077,76.4645891 C718.284171,77.148909 717.438171,77.4177476 716.742571,77.0699464 C716.048851,76.7221453 715.755571,75.8855459 716.082692,75.1805459 C719.226052,68.8938254 719.397133,59.6630243 712.264413,55.4424248 C711.937292,55.250664 711.700413,54.9348254 711.604534,54.5663441 C711.508655,54.1997447 711.563173,53.8087044 711.756813,53.4815833 L711.756807,53.4815891 Z" id="Shape"></path>
                <path d="M904.966151,67.5439868 C902.07471,69.7116266 898.679431,71.1065862 895.09803,71.5972663 C888.17775,72.1123874 881.34207,69.8075084 876.14575,65.2071482 C866.49571,59.4599868 857.855229,62.2160675 852.828108,68.0215084 C852.309229,68.6212289 851.401188,68.68703 850.801468,68.168151 C850.201748,67.6492721 850.135946,66.7412317 850.654825,66.1415113 C855.454465,60.3605113 863.151186,57.8563499 870.432425,59.7062692 C866.381024,55.3221078 863.450105,50.0261482 861.885944,44.2658283 C861.735543,43.4875084 862.245024,42.7355084 863.023344,42.5869897 C863.801664,42.4365891 864.553664,42.9460703 864.704065,43.7243902 C866.553984,50.0975891 870.109065,55.8447505 874.983903,60.3492317 C875.865624,61.2102721 876.788704,62.033713 877.747505,62.8139118 C878.512667,63.2763931 879.285347,63.7821136 880.061788,64.334834 C880.232869,64.4570329 880.375748,64.6149522 880.475387,64.7991914 C884.603869,67.7865113 889.670468,69.1814709 894.746468,68.73403 C900.901589,67.9557101 907.167629,63.656151 912.922309,53.9534709 C914.475188,48.5898311 914.06535,42.8483124 911.766111,37.7610329 C904.426592,23.4974738 895.066073,15.7330732 885.487474,12.8754738 C875.850595,9.66255448 865.318834,10.5423931 856.349353,15.3100732 C848.906433,19.2956726 842.582113,25.0823124 837.953554,32.143592 C828.384356,46.8696323 821.477235,70.5783124 827.228154,98.9888715 C827.632353,101.709232 828.224552,104.399511 829.000992,107.037151 C842.781393,153.085871 894.468232,151.074272 909.876713,116.222831 C918.457033,96.7949118 914.561673,79.9031107 904.966154,67.5439897 L904.966151,67.5439868 Z M874.743275,109.851508 C875.326076,110.389189 875.363675,111.297229 874.825995,111.88003 C874.288315,112.46471 873.380275,112.500431 872.797474,111.96275 C868.106874,107.595511 865.461713,101.46107 865.504952,95.052151 C865.548191,88.6451107 868.274191,82.5463902 873.021191,78.2411914 C873.611511,77.7317101 874.502632,77.7862289 875.025272,78.3652692 C875.549791,78.9443095 875.51407,79.8354306 874.948191,80.3712317 C870.795272,84.1331107 868.411433,89.4647908 868.371952,95.0671914 C868.332471,100.669592 870.644871,106.031353 874.743272,109.851514 L874.743275,109.851508 Z" id="Shape"></path>
                <path d="M969.900131,15.8012066 L924.53534,114.989147 C920.607481,124.216887 924.903881,134.881607 934.131622,138.809467 C943.359362,142.737326 954.024082,138.440925 957.951941,129.213185 L997.97397,27.7585269 C1001.17363,20.0278503 997.549762,11.1625212 989.851017,7.88677835 C982.152268,4.61103555 973.251635,8.14730936 969.900134,15.8133811 L969.900131,15.8012066 Z" id="Path"></path>
                <path d="M1024.54701,82.6817447 C1024.66357,82.6949061 1024.77637,82.721226 1024.88729,82.7607072 C1031.70605,85.6502663 1039.53437,84.8230675 1045.59737,80.5686266 C1051.56825,75.7859061 1054.95789,66.2091856 1052.29205,49.7178254 C1051.73745,44.4011856 1054.83569,39.3778254 1059.83461,37.4827851 C1060.55653,37.2007851 1061.37433,37.5448254 1061.67889,38.2573441 C1061.98345,38.9717447 1061.66385,39.7989436 1060.96073,40.1241828 C1057.18193,41.5059839 1054.79245,45.2434248 1055.12709,49.2515862 C1058.04297,67.2375459 1053.91073,77.5869464 1047.40217,82.8020675 C1040.55145,87.6787879 1031.67221,88.6789493 1023.90781,85.4491107 C1023.64085,85.3532317 1023.40773,85.1783931 1023.24041,84.9471539 C1020.42981,86.7406726 1017.83729,88.8537937 1015.51361,91.2451539 C1012.08261,95.3153528 1009.53897,100.058592 1008.05001,105.168431 C1006.87125,110.030111 1007.09309,115.124912 1008.68921,119.864393 C1010.64817,127.327993 1016.47805,134.772794 1031.46165,137.863514 C1037.11105,138.577915 1042.82624,137.209275 1047.53941,134.015154 C1054.57249,138.081595 1062.89149,139.312995 1070.79877,137.457436 C1081.48845,134.673157 1091.87169,127.850638 1095.65988,114.978278 C1097.8482,109.255557 1097.00972,102.816557 1093.42832,97.8458369 C1089.84692,92.8751164 1084.00388,90.041955 1077.8826,90.3051539 C1073.0698,95.0972749 1067.61216,99.1937937 1061.66572,102.476275 C1056.04452,105.758756 1049.28404,106.463756 1043.10636,104.410797 C1042.38632,104.117517 1042.031,103.307237 1042.30172,102.579678 C1042.57432,101.852119 1043.3752,101.472358 1044.11028,101.722399 C1049.53596,103.478318 1055.4542,102.820318 1060.361,99.9138369 C1066.6026,96.4132778 1072.30464,92.0309983 1077.29228,86.8985977 C1086.13768,78.1077187 1091.97508,66.7431193 1093.966,54.4347591 C1096.36676,37.5843181 1088.185,24.4675573 1077.375,16.1372778 C1064.74704,6.81247666 1047.98308,5.27839597 1033.8718,12.1573153 C1020.40536,18.6169954 1008.26244,34.3187562 1011.05236,64.5660761 C1012.17472,72.5071971 1017.25824,79.3315977 1024.547,82.6817591 L1024.54701,82.6817447 Z" id="Path"></path>
                <path d="M1106.81654,72.2214248 C1107.56854,73.3400243 1108.44838,74.3683845 1109.44102,75.2820646 C1118.68874,82.4279436 1131.76414,83.7025833 1139.61502,76.447664 C1144.9091,71.5540243 1147.70842,62.8590243 1145.57838,49.7178254 C1145.02378,44.4011856 1148.11826,39.3778254 1153.11718,37.4827851 C1153.84474,37.180105 1154.68134,37.5203845 1154.99154,38.2441856 C1155.29986,38.9698658 1154.96898,39.808347 1154.24706,40.1241856 C1150.46826,41.5059868 1148.07878,45.2434277 1148.41342,49.2515891 C1150.75402,63.6899897 1147.37942,73.1764709 1141.56458,78.5495113 C1140.13578,79.8692721 1138.52274,80.974713 1136.77622,81.8319925 C1139.25782,82.3508715 1141.64542,83.2495113 1143.8563,84.4921914 C1146.83422,86.0883124 1149.15602,88.6808311 1150.41938,91.8147908 C1151.74666,95.9601914 1151.3199,100.466552 1149.23873,104.288592 C1148.90222,105.008632 1148.04681,105.318831 1147.32677,104.982312 C1146.60861,104.647673 1146.29841,103.792272 1146.63305,103.072232 C1148.37769,99.9382721 1148.77249,96.2290329 1147.72533,92.7980329 C1146.69697,90.2882317 1144.81697,88.2202317 1142.41621,86.9587505 C1138.33849,84.7741914 1133.73625,83.7571107 1129.11709,84.0221914 C1129.01745,84.0334709 1128.91405,84.0334709 1128.81441,84.0221914 C1122.01257,84.5297908 1115.23893,82.7306294 1109.58765,78.9142289 C1102.92681,98.1259493 1106.90677,112.118788 1114.82722,121.511269 C1121.93738,130.031431 1132.02358,135.528552 1143.03849,136.884033 C1162.99094,139.175753 1184.0507,129.563312 1189.70198,112.389511 C1192.63854,104.07239 1192.42234,94.9675516 1189.09286,86.8008311 C1187.73173,83.1818311 1185.87805,79.7696323 1183.58257,76.6601136 C1183.10317,76.0321942 1182.59181,75.4211942 1182.06165,74.8195948 C1178.32797,78.6341136 1173.20309,80.7641539 1167.86577,80.7152749 C1167.08557,80.7265545 1166.43885,80.1155545 1166.40877,79.3353556 C1166.37869,78.5570357 1166.97465,77.8952749 1167.75297,77.846396 C1174.18445,77.9009147 1180.10645,74.3495948 1183.09001,68.6513153 C1185.14485,64.1299147 1186.54921,59.3415545 1187.26173,54.4272346 C1189.66249,37.5786755 1181.48073,24.4619147 1170.66697,16.1316352 C1158.03901,6.79931528 1141.27129,5.26335562 1127.15813,12.1422749 C1113.69545,18.601955 1101.54877,34.3037159 1104.33869,64.5510357 C1104.71845,67.2300357 1105.55505,69.8244363 1106.81653,72.2214363 L1106.81654,72.2214248 Z" id="Path"></path>
                <path d="M1246.82413,15.8012066 L1201.45934,114.989147 C1197.53148,124.216887 1201.82788,134.881607 1211.05562,138.809467 C1220.28336,142.737326 1230.94808,138.440925 1234.87594,129.213185 L1274.89797,27.7585269 C1278.09763,20.0278503 1274.47376,11.1625212 1266.77502,7.88677835 C1259.07627,4.61103555 1250.17563,8.14730936 1246.82413,15.8133811 L1246.82413,15.8012066 Z" id="Path"></path>
                <path d="M1301.47101,82.6817447 C1301.58757,82.6949061 1301.70037,82.721226 1301.81129,82.7607072 C1308.63005,85.6502663 1316.45837,84.8230675 1322.52137,80.5686266 C1328.49225,75.7859061 1331.88189,66.2091856 1329.21605,49.7178254 C1328.66145,44.4011856 1331.75969,39.3778254 1336.75861,37.4827851 C1337.48053,37.2007851 1338.29833,37.5448254 1338.60289,38.2573441 C1338.90745,38.9717447 1338.58785,39.7989436 1337.88473,40.1241828 C1334.10593,41.5059839 1331.71645,45.2434248 1332.05109,49.2515862 C1334.96697,67.2375459 1330.83473,77.5869464 1324.32617,82.8020675 C1317.47545,87.6787879 1308.59621,88.6789493 1300.83181,85.4491107 C1300.56485,85.3532317 1300.33173,85.1783931 1300.16441,84.9471539 C1297.35381,86.7406726 1294.76129,88.8537937 1292.43761,91.2451539 C1289.00661,95.3153528 1286.46297,100.058592 1284.97401,105.168431 C1283.79525,110.030111 1284.01709,115.124912 1285.61321,119.864393 C1287.57217,127.327993 1293.40205,134.772794 1308.38565,137.863514 C1314.03505,138.577915 1319.75024,137.209275 1324.46341,134.015154 C1331.49649,138.081595 1339.81549,139.312995 1347.72277,137.457436 C1358.41245,134.673157 1368.79569,127.850638 1372.58388,114.978278 C1374.7722,109.255557 1373.93372,102.816557 1370.35232,97.8458369 C1366.77092,92.8751164 1360.92788,90.041955 1354.8066,90.3051539 C1349.9938,95.0972749 1344.53616,99.1937937 1338.58972,102.476275 C1332.96852,105.758756 1326.20804,106.463756 1320.03036,104.410797 C1319.31032,104.117517 1318.955,103.307237 1319.22572,102.579678 C1319.49832,101.852119 1320.2992,101.472358 1321.03428,101.722399 C1326.45996,103.478318 1332.3782,102.820318 1337.285,99.9138369 C1343.5266,96.4132778 1349.22864,92.0309983 1354.21628,86.8985977 C1363.06168,78.1077187 1368.89908,66.7431193 1370.89,54.4347591 C1373.29076,37.5843181 1365.109,24.4675573 1354.299,16.1372778 C1341.67104,6.81247666 1324.90708,5.27839597 1310.7958,12.1573153 C1297.32936,18.6169954 1285.18644,34.3187562 1287.97636,64.5660761 C1289.09872,72.5071971 1294.18224,79.3315977 1301.471,82.6817591 L1301.47101,82.6817447 Z" id="Path"></path>
                <path d="M1383.74054,72.2214248 C1384.49254,73.3400243 1385.37238,74.3683845 1386.36502,75.2820646 C1395.61274,82.4279436 1408.68814,83.7025833 1416.53902,76.447664 C1421.8331,71.5540243 1424.63242,62.8590243 1422.50238,49.7178254 C1421.94778,44.4011856 1425.04226,39.3778254 1430.04118,37.4827851 C1430.76874,37.180105 1431.60534,37.5203845 1431.91554,38.2441856 C1432.22386,38.9698658 1431.89298,39.808347 1431.17106,40.1241856 C1427.39226,41.5059868 1425.00278,45.2434277 1425.33742,49.2515891 C1427.67802,63.6899897 1424.30342,73.1764709 1418.48858,78.5495113 C1417.05978,79.8692721 1415.44674,80.974713 1413.70022,81.8319925 C1416.18182,82.3508715 1418.56942,83.2495113 1420.7803,84.4921914 C1423.75822,86.0883124 1426.08002,88.6808311 1427.34338,91.8147908 C1428.67066,95.9601914 1428.2439,100.466552 1426.16273,104.288592 C1425.82622,105.008632 1424.97081,105.318831 1424.25077,104.982312 C1423.53261,104.647673 1423.22241,103.792272 1423.55705,103.072232 C1425.30169,99.9382721 1425.69649,96.2290329 1424.64933,92.7980329 C1423.62097,90.2882317 1421.74097,88.2202317 1419.34021,86.9587505 C1415.26249,84.7741914 1410.66025,83.7571107 1406.04109,84.0221914 C1405.94145,84.0334709 1405.83805,84.0334709 1405.73841,84.0221914 C1398.93657,84.5297908 1392.16293,82.7306294 1386.51165,78.9142289 C1379.85081,98.1259493 1383.83077,112.118788 1391.75122,121.511269 C1398.86138,130.031431 1408.94758,135.528552 1419.96249,136.884033 C1439.91494,139.175753 1460.9747,129.563312 1466.62598,112.389511 C1469.56254,104.07239 1469.34634,94.9675516 1466.01686,86.8008311 C1464.65573,83.1818311 1462.80205,79.7696323 1460.50657,76.6601136 C1460.02717,76.0321942 1459.51581,75.4211942 1458.98565,74.8195948 C1455.25197,78.6341136 1450.12709,80.7641539 1444.78977,80.7152749 C1444.00957,80.7265545 1443.36285,80.1155545 1443.33277,79.3353556 C1443.30269,78.5570357 1443.89865,77.8952749 1444.67697,77.846396 C1451.10845,77.9009147 1457.03045,74.3495948 1460.01401,68.6513153 C1462.06885,64.1299147 1463.47321,59.3415545 1464.18573,54.4272346 C1466.58649,37.5786755 1458.40473,24.4619147 1447.59097,16.1316352 C1434.96301,6.79931528 1418.19529,5.26335562 1404.08213,12.1422749 C1390.61945,18.601955 1378.47277,34.3037159 1381.26269,64.5510357 C1381.64245,67.2300357 1382.47905,69.8244363 1383.74053,72.2214363 L1383.74054,72.2214248 Z" id="Path"></path>
            </g>
        </g>
    </g>
</svg>