<?xml version="1.0" encoding="UTF-8"?>
<svg width="1570px" height="189px" viewBox="0 0 1570 189" version="1.1" xmlns="http://www.w3.org/2000/svg" xmlns:xlink="http://www.w3.org/1999/xlink">
    <title>logo</title>
    <g id="Page-1" stroke="none" stroke-width="1" fill="none" fill-rule="evenodd">
        <g id="logo" transform="translate(1, 1)" fill="#FFFFFF" fill-rule="nonzero" stroke="#D4B254">
            <path d="M81.3575846,6.08794504 C94.0962693,8.39864022 106.175241,18.2960136 117.380287,33.9585349 C128.920767,50.0668058 132.831876,66.4031296 131.923876,80.6653574 C130.83285,97.8024216 122.779913,111.94386 112.615542,119.159552 C117.884904,121.344219 122.334705,124.900045 125.598508,129.330007 C129.041836,134.003638 131.165106,139.650215 131.537936,145.684739 C132.013874,153.061774 129.35645,158.885236 125.165209,163.387933 C119.73391,169.222836 111.709029,172.828872 104.633388,174.705748 C93.5737969,177.331671 81.9419321,175.617809 72.1230137,169.917904 C62.4901994,164.404724 46.4448043,147.616793 42.0014768,115.89456 C46.1889601,113.680657 49.1309602,110.355354 50.3294617,106.288764 C50.443099,106.006188 50.4686442,105.755644 50.4283292,105.51616 C50.3880053,105.276624 50.2817913,105.048139 50.1144399,104.85911 C49.9467202,104.669665 49.7325064,104.53582 49.4993629,104.466149 C49.2672077,104.396773 49.0162449,104.391051 48.7718784,104.458248 C48.5285267,104.524065 48.3146381,104.65657 48.1495932,104.834241 C47.9842549,105.012228 47.8678847,105.235567 47.8201685,105.482823 C46.7188739,109.18428 44.2436668,111.667904 40.9506762,113.125678 C37.3686502,114.711406 32.8057339,115.073776 28.0335424,114.393871 C27.7776929,114.348591 27.5368541,114.372889 27.3179474,114.455166 C27.0996443,114.537217 26.9031422,114.676951 26.7509606,114.867604 C26.5994319,115.0555 26.5055542,115.277614 26.4726045,115.508564 C26.4395526,115.74023 26.4677834,115.980805 26.5607116,116.204874 C26.653584,116.428807 26.803732,116.618469 26.9910122,116.758629 C27.1782618,116.898766 27.4026131,116.989401 27.6438637,117.015435 C31.3991478,117.608381 35.2098974,117.462731 38.8843809,116.588749 C39.0622291,116.546447 39.2395942,116.502478 39.416654,116.461002 C39.4422092,116.641189 39.4682519,116.821726 39.4947852,117.002612 C43.0580848,141.294812 53.2864775,157.000153 62.2150758,165.62939 C58.8144161,170.450372 54.2099015,173.008343 49.0921526,173.937382 C43.923414,174.875677 38.2282432,174.15052 32.6890714,171.70659 C23.0283165,167.444183 13.8285266,157.94519 8.78783962,142.933117 C-1.81224516,110.068776 -2.84517354,74.8653706 5.81062867,41.4288912 C9.3468615,28.4934053 15.3214514,21.3501171 21.6345136,17.9800248 C25.7459427,15.7852269 30.0117024,15.1836766 33.8786053,15.6429548 C38.2031285,16.1565854 42.0266927,17.9994646 44.588749,20.4219149 C57.3336377,8.22157628 69.6412242,3.96269129 81.3575846,6.08794504 Z M75.7101613,46.8294012 L75.5622201,46.8364814 C75.3172356,46.8622109 75.0821013,46.9570311 74.8857636,47.1126192 C74.5931093,47.3430663 74.4212073,47.6685258 74.3786131,48.0099093 C74.3360367,48.3511501 74.4226545,48.7083848 74.6485771,49.0014741 C80.6176504,57.0232029 82.6838856,67.2862019 80.2860019,76.9845773 C79.4344136,81.5851015 77.358617,85.8718399 74.2440726,89.4213832 C73.9782742,89.6784664 73.8410728,90.0187622 73.8335111,90.3618661 C73.8259344,90.7056542 73.948444,91.0523754 74.2025401,91.3213155 C74.4443699,91.5787994 74.7788149,91.727504 75.1304243,91.736656 C75.4720664,91.7428929 75.8051543,91.6150705 76.0566985,91.3802246 C79.5331943,87.4950022 81.8837627,82.7347885 82.8657801,77.5876463 C85.4471166,67.0949169 83.1981645,55.9963313 76.7342055,47.3352845 C76.5247329,47.065132 76.2076569,46.8826581 75.859077,46.8393023 L75.7101613,46.8294012 Z" id="Shape"></path>
            <path d="M224.425979,25.9307693 C237.920035,37.5811129 245.910402,54.3279083 246.474088,72.122574 C246.324696,72.5431128 246.27039,72.727116 246.257553,72.9274727 C244.809542,90.5280342 234.47316,106.171369 218.851792,114.406381 C211.512906,118.781102 203.269642,120.964251 195.028484,120.956734 C186.778664,120.949209 178.530954,118.746412 171.194695,114.349248 C170.872448,114.145105 170.510406,114.091955 170.176882,114.166282 C169.844237,114.240412 169.540044,114.441417 169.342126,114.753547 C169.144201,115.063456 169.091358,115.424562 169.16523,115.757458 C169.239193,116.090764 169.440167,116.395965 169.75177,116.594 C177.489705,121.253558 186.194359,123.598835 194.906747,123.627474 C203.624414,123.656129 212.349823,121.36534 220.122258,116.752748 C231.287578,110.692784 240.076689,101.06744 245.087182,89.4141908 C248.563545,90.3230141 253.675809,93.2889278 256.515424,99.9239852 C258.321014,104.142936 259.211493,109.85762 257.968655,117.563406 C255.056753,135.63765 247.73459,148.935684 237.073254,157.669514 C225.876565,166.841907 210.984281,170.987981 193.592098,170.300586 C183.755387,169.912041 173.181469,165.548639 163.990794,158.744168 C154.823623,151.957099 147.036044,142.745811 142.725512,132.663428 C128.966954,100.498442 133.469097,69.6287824 149.61507,45.581639 C159.114315,31.4337744 172.1981,21.7395761 185.895277,18.127823 C199.033821,14.6633734 212.740914,16.7842417 224.425979,25.9307693 Z M198.713878,63.9842379 C198.398501,63.7988245 198.037031,63.7589741 197.708114,63.8444235 C197.378979,63.9299294 197.082364,64.1408988 196.896518,64.4570119 C196.717645,64.7591943 196.66744,65.1188891 196.755637,65.4561164 C196.844177,65.7963911 197.061922,66.0881425 197.363656,66.2650211 C201.628012,68.7883366 203.907483,72.6717549 204.732437,76.936255 C205.707614,81.9773093 204.638096,87.5538772 202.418611,91.9995542 C202.267508,92.3250439 202.259716,92.6804574 202.369488,92.9947617 C202.479458,93.3096345 202.707382,93.5832845 203.027866,93.7439612 C203.348462,93.9042595 203.704246,93.9225079 204.022086,93.8216762 C204.335817,93.7221482 204.612626,93.5065824 204.782418,93.1971687 C207.315896,88.1320447 208.425117,81.8043928 207.22279,76.069481 C206.210935,71.2430894 203.554338,66.8381011 198.713878,63.9842379 Z" id="Shape"></path>
            <path d="M344.350226,16.6084976 C349.330004,17.4516403 353.891265,19.6014373 357.638,22.72729 C361.384,25.8525293 364.315789,29.953438 366.039294,34.7036138 C375.751662,59.342632 374.473353,90.9651436 374.265315,96.0826704 C374.250022,96.4588666 374.239166,96.6811185 374.242066,96.7363322 C375.303258,118.968554 369.610752,141.001502 357.913627,159.937303 C351.978861,168.995319 343.876286,176.411455 334.336736,181.520894 C322.815528,187.643802 309.284749,188.774184 296.905715,184.646511 C284.628135,180.982136 272.61835,171.046405 263.212224,152.761937 C260.229262,146.163415 259.699493,138.742037 261.706716,131.809094 C269.179537,119.170792 277.290365,113.670232 285.225709,112.661953 C291.817524,112.078091 298.380663,113.886854 303.726604,117.75268 C303.966364,118.090387 304.098843,118.23756 304.250683,118.348947 C305.227183,119.048813 306.198922,119.694344 307.163601,120.280716 C308.445018,121.31651 309.632146,122.378126 310.751511,123.469047 C317.01565,129.250028 321.581507,136.630255 323.961062,144.817367 C324.04137,145.22182 324.250014,145.519866 324.53148,145.710445 C324.812271,145.900568 325.165559,145.983649 325.526479,145.914075 C325.886502,145.845541 326.184503,145.637354 326.375181,145.356521 C326.563268,145.079503 326.646958,144.731742 326.582084,144.377219 C324.610805,137.140638 320.924318,130.48514 315.833771,124.976481 C315.408599,124.516388 314.974681,124.06543 314.533935,123.624058 C315.120499,123.821989 315.71751,123.998458 316.324077,124.152527 C320.859899,125.30463 325.523926,125.100946 329.801305,123.709171 C334.078896,122.317327 337.969796,119.737276 340.966175,116.128429 C341.205295,115.852922 341.309616,115.506359 341.285155,115.168924 C341.260654,114.830945 341.106999,114.502122 340.829625,114.262136 C340.554117,114.023016 340.207554,113.918695 339.87012,113.943157 C339.53214,113.967657 339.203317,114.121312 338.963704,114.398257 C335.466514,118.436897 330.623542,121.335921 324.956753,122.018969 C320.044752,122.611039 314.507008,121.539915 308.686706,118.073586 C302.106696,112.262014 293.554118,109.37666 284.893838,110.020646 C280.434221,110.632745 276.204407,112.372229 272.603894,115.0732 C258.179102,99.833462 261.080447,73.4122915 262.553998,67.6050846 C266.845607,49.708939 278.436809,34.4306329 294.512054,25.4804205 C309.632223,16.9423964 327.211073,13.8125193 344.350226,16.6084976 Z M312.06679,57.1144404 L311.930912,57.1221991 C311.660973,57.1525061 311.404343,57.2707709 311.204328,57.4629826 C306.968823,62.4893756 305.149276,69.1231551 306.237556,75.6432993 C306.907434,82.4431258 309.901924,88.8034045 314.715623,93.6547114 C314.978402,93.9329262 315.341861,94.06745 315.70864,94.0304352 C316.077144,93.9934163 316.406854,93.7867035 316.600266,93.4738789 C316.845408,93.0652228 316.935006,92.592558 316.875384,92.1394307 C316.815819,91.6867315 316.607298,91.253575 316.259767,90.9175955 C312.146349,86.7482641 309.597601,81.300887 309.034943,75.4851804 C308.102835,70.0609817 309.588697,64.5042969 313.101061,60.2683673 C313.409568,59.9029485 313.56677,59.4588433 313.574554,59.012071 C313.582351,58.5645846 313.440291,58.1144577 313.116799,57.697517 C312.915779,57.3755421 312.580166,57.164319 312.203682,57.1217305 L312.06679,57.1144404 Z" id="Shape"></path>
            <path d="M462.655226,16.6084976 C467.635004,17.4516403 472.196265,19.6014373 475.943,22.72729 C479.689,25.8525293 482.620789,29.953438 484.344294,34.7036138 C494.056662,59.342632 492.778353,90.9651436 492.570315,96.0826704 C492.555022,96.4588666 492.544166,96.6811185 492.547066,96.7363322 C493.608258,118.968554 487.915752,141.001502 476.218627,159.937303 C470.283861,168.995319 462.181286,176.411455 452.641736,181.520894 C441.120528,187.643802 427.589749,188.774184 415.210715,184.646511 C402.933135,180.982136 390.92335,171.046405 381.517224,152.761937 C378.534262,146.163415 378.004493,138.742037 380.011716,131.809094 C387.484537,119.170792 395.595365,113.670232 403.530709,112.661953 C410.122524,112.078091 416.685663,113.886854 422.031604,117.75268 C422.271364,118.090387 422.403843,118.23756 422.555683,118.348947 C423.532183,119.048813 424.503922,119.694344 425.468601,120.280716 C426.750018,121.31651 427.937146,122.378126 429.056511,123.469047 C435.32065,129.250028 439.886507,136.630255 442.266062,144.817367 C442.34637,145.22182 442.555014,145.519866 442.83648,145.710445 C443.117271,145.900568 443.470559,145.983649 443.831479,145.914075 C444.191502,145.845541 444.489503,145.637354 444.680181,145.356521 C444.868268,145.079503 444.951958,144.731742 444.887084,144.377219 C442.915805,137.140638 439.229318,130.48514 434.138771,124.976481 C433.713599,124.516388 433.279681,124.06543 432.838935,123.624058 C433.425499,123.821989 434.02251,123.998458 434.629077,124.152527 C439.164899,125.30463 443.828926,125.100946 448.106305,123.709171 C452.383896,122.317327 456.274796,119.737276 459.271175,116.128429 C459.510295,115.852922 459.614616,115.506359 459.590155,115.168924 C459.565654,114.830945 459.411999,114.502122 459.134625,114.262136 C458.859117,114.023016 458.512554,113.918695 458.17512,113.943157 C457.83714,113.967657 457.508317,114.121312 457.268704,114.398257 C453.771514,118.436897 448.928542,121.335921 443.261753,122.018969 C438.349752,122.611039 432.812008,121.539915 426.991706,118.073586 C420.411696,112.262014 411.859118,109.37666 403.198838,110.020646 C398.739221,110.632745 394.509407,112.372229 390.908894,115.0732 C376.484102,99.833462 379.385447,73.4122915 380.858998,67.6050846 C385.150607,49.708939 396.741809,34.4306329 412.817054,25.4804205 C427.937223,16.9423964 445.516073,13.8125193 462.655226,16.6084976 Z M430.37179,57.1144404 L430.235912,57.1221991 C429.965973,57.1525061 429.709343,57.2707709 429.509328,57.4629826 C425.273823,62.4893756 423.454276,69.1231551 424.542556,75.6432993 C425.212434,82.4431258 428.206924,88.8034045 433.020623,93.6547114 C433.283402,93.9329262 433.646861,94.06745 434.01364,94.0304352 C434.382144,93.9934163 434.711854,93.7867035 434.905266,93.4738789 C435.150408,93.0652228 435.240006,92.592558 435.180384,92.1394307 C435.120819,91.6867315 434.912298,91.253575 434.564767,90.9175955 C430.451349,86.7482641 427.902601,81.300887 427.339943,75.4851804 C426.407835,70.0609817 427.893697,64.5042969 431.406061,60.2683673 C431.714568,59.9029485 431.87177,59.4588433 431.879554,59.012071 C431.887351,58.5645846 431.745291,58.1144577 431.421799,57.697517 C431.220779,57.3755421 430.885166,57.164319 430.508682,57.1217305 L430.37179,57.1144404 Z" id="Shape"></path>
            <path d="M513.272896,63.8197972 C524.508976,56.8190558 539.435301,59.2121515 548.617381,62.4219839 C551.925554,63.5806065 554.87729,66.4135099 557.198658,70.3025282 C559.572402,74.2792935 561.290849,79.3582301 562.074611,84.8156125 C563.455784,94.4328136 561.930036,105.214492 556.036337,113.199171 C553.941893,115.460057 555.199168,122.495373 556.490888,130.620955 C557.773999,138.692382 559.228633,147.903504 558.190691,155.046615 C557.436137,160.239456 555.366981,164.336488 551.102037,166.25378 C538.179207,172.06144 523.736778,172.273853 517.286546,169.830704 C510.733011,167.867966 505.287639,157.970908 501.866326,144.042097 C498.383454,129.862669 496.954351,111.579383 498.389904,93.7348924 C499.688893,77.6203866 505.654423,68.566556 513.272896,63.8197972 Z M510.569711,6.28411549 C518.829636,0.704433188 529.969862,-1.8205512 540.118904,1.4587418 C548.128425,4.04591689 553.164034,9.15982687 555.755287,15.2599661 C558.751579,22.3136181 558.470346,30.7009996 555.696443,38.0434423 C552.968822,45.2633775 547.835152,51.4618405 541.079071,54.4040876 C535.265339,56.9359456 528.243183,57.0722878 520.494751,53.3495375 C511.7511,49.1463703 500.228088,41.0580186 498.314122,29.8213283 C497.568074,25.4394852 498.446307,21.1141306 500.507267,17.1712524 C502.701365,12.973662 506.238493,9.2099075 510.569711,6.28411549 Z" id="Shape"></path>
            <path d="M725.462585,6.08794504 C738.20127,8.39864022 750.280241,18.2960136 761.485287,33.9585349 C773.025767,50.0668058 776.936876,66.4031296 776.028876,80.6653574 C774.93785,97.8024216 766.884913,111.94386 756.720542,119.159552 C761.989904,121.344219 766.439705,124.900045 769.703508,129.330007 C773.146836,134.003638 775.270106,139.650215 775.642936,145.684739 C776.118874,153.061774 773.46145,158.885236 769.270209,163.387933 C763.83891,169.222836 755.814029,172.828872 748.738388,174.705748 C737.678797,177.331671 726.046932,175.617809 716.228014,169.917904 C706.5952,164.404724 690.549805,147.616793 686.106477,115.89456 C690.29396,113.680657 693.23596,110.355354 694.434462,106.288764 C694.548099,106.006188 694.573645,105.755644 694.533329,105.51616 C694.493006,105.276624 694.386792,105.048139 694.21944,104.85911 C694.051721,104.669665 693.837507,104.53582 693.604363,104.466149 C693.372208,104.396773 693.121245,104.391051 692.876879,104.458248 C692.633527,104.524065 692.419638,104.65657 692.254593,104.834241 C692.089255,105.012228 691.972885,105.235567 691.925169,105.482823 C690.823874,109.18428 688.348667,111.667904 685.055677,113.125678 C681.47365,114.711406 676.910734,115.073776 672.138543,114.393871 C671.882693,114.348591 671.641854,114.372889 671.422948,114.455166 C671.204645,114.537217 671.008142,114.676951 670.855961,114.867604 C670.704432,115.0555 670.610554,115.277614 670.577605,115.508564 C670.544553,115.74023 670.572784,115.980805 670.665712,116.204874 C670.758584,116.428807 670.908732,116.618469 671.096013,116.758629 C671.283262,116.898766 671.507613,116.989401 671.748864,117.015435 C675.504148,117.608381 679.314898,117.462731 682.989381,116.588749 C683.167229,116.546447 683.344594,116.502478 683.521654,116.461002 C683.54721,116.641189 683.573252,116.821726 683.599786,117.002612 C687.163085,141.294812 697.391478,157.000153 706.320076,165.62939 C702.919416,170.450372 698.314902,173.008343 693.197153,173.937382 C688.028414,174.875677 682.333244,174.15052 676.794072,171.70659 C667.133317,167.444183 657.933527,157.94519 652.89284,142.933117 C642.292755,110.068776 641.259827,74.8653706 649.915629,41.4288912 C653.451862,28.4934053 659.426452,21.3501171 665.739514,17.9800248 C669.850943,15.7852269 674.116703,15.1836766 677.983606,15.6429548 C682.308129,16.1565854 686.131693,17.9994646 688.693749,20.4219149 C701.438638,8.22157628 713.746225,3.96269129 725.462585,6.08794504 Z M719.815162,46.8294012 L719.66722,46.8364814 C719.422236,46.8622109 719.187102,46.9570311 718.990764,47.1126192 C718.69811,47.3430663 718.526208,47.6685258 718.483613,48.0099093 C718.441037,48.3511501 718.527655,48.7083848 718.753577,49.0014741 C724.722651,57.0232029 726.788886,67.2862019 724.391002,76.9845773 C723.539414,81.5851015 721.463617,85.8718399 718.349073,89.4213832 C718.083275,89.6784664 717.946073,90.0187622 717.938511,90.3618661 C717.930935,90.7056542 718.053444,91.0523754 718.30754,91.3213155 C718.54937,91.5787994 718.883815,91.727504 719.235425,91.736656 C719.577067,91.7428929 719.910155,91.6150705 720.161699,91.3802246 C723.638195,87.4950022 725.988763,82.7347885 726.97078,77.5876463 C729.552117,67.0949169 727.303165,55.9963313 720.839206,47.3352845 C720.629733,47.065132 720.312657,46.8826581 719.964077,46.8393023 L719.815162,46.8294012 Z" id="Shape"></path>
            <path d="M857.244709,19.8122586 C881.482615,21.3486271 903.474022,34.0668524 914.10169,50.459082 C927.549353,71.1917909 928.205052,101.820233 923.13527,120.981562 C918.875066,137.096171 909.969933,149.339537 898.56794,157.722595 C885.998802,166.96377 870.391013,171.512774 854.616736,171.371761 C838.876834,171.231055 822.973274,166.42076 809.763876,156.95339 C797.797165,148.376674 788.039656,135.978777 782.618438,119.764814 C779.240067,109.666085 776.670453,93.7294329 779.918681,77.2965464 C782.254615,65.4789872 787.59636,53.4060792 797.798262,43.0572424 C815.705638,24.8865225 837.237585,18.5440667 857.244709,19.8122586 Z M838.738361,71.479292 C838.295638,71.2925026 837.818052,71.2795837 837.387078,71.4148109 C836.960957,71.5485154 836.580427,71.8270568 836.32432,72.2257665 C836.150768,72.5834103 836.138109,73.0000953 836.2917,73.3676782 C836.448175,73.7421654 836.760998,74.0306914 837.234091,74.1937447 C841.987572,76.8256995 846.105756,80.4673591 849.296814,84.8630216 C849.836072,85.5230487 850.375355,86.2013825 850.909851,86.8916761 L851.269956,87.3595223 C851.097604,87.4515752 850.924881,87.5442374 850.752469,87.6375346 C843.023219,91.8200613 836.021356,97.2227977 830.016646,103.639885 C829.779358,103.954162 829.693862,104.356781 829.783031,104.739175 C829.872308,105.131271 830.129592,105.460048 830.511514,105.65287 C830.935029,105.897206 831.415059,105.973024 831.868308,105.894761 C832.321583,105.816492 832.748033,105.584132 833.08154,105.193044 C838.7946,99.1408071 845.445803,94.0459607 853.417493,90.2502804 C858.043239,96.5509075 861.7421,103.485464 864.394127,110.837986 C864.569346,111.279474 864.8962,111.618098 865.293314,111.815309 C865.691174,112.01289 866.159558,112.068583 866.672463,111.930259 C867.083003,111.866 867.448892,111.630354 867.67736,111.282298 C867.903992,110.939708 867.976961,110.521506 867.884538,110.125234 C865.131753,102.482275 861.294743,95.2783013 856.494857,88.7265259 C856.384996,88.5765677 856.274657,88.4269874 856.163843,88.2777872 C856.324992,88.1819876 856.488336,88.0882553 856.652369,87.9956401 C860.303888,85.933946 864.253048,84.4505907 868.42915,83.589576 C868.850409,83.560645 869.242246,83.3574469 869.513297,83.0321851 C869.776367,82.7165005 869.901049,82.308669 869.86122,81.9000635 C869.736899,81.4642893 869.458113,81.1103978 869.098907,80.8847511 C868.730522,80.6533381 868.277538,80.5568029 867.819879,80.6453518 C863.206981,81.5807078 858.764661,83.2238386 854.010616,85.3846497 C852.304936,83.1895926 850.57569,81.1274011 848.829222,79.279616 C846.018672,76.0343259 842.586318,73.382692 838.738361,71.479292 Z" id="Shape"></path>
            <path d="M1006.38071,19.8122586 C1030.61862,21.3486271 1052.61002,34.0668524 1063.23769,50.459082 C1076.68536,71.1917909 1077.34106,101.820233 1072.27127,120.981562 C1068.01107,137.096171 1059.10594,149.339537 1047.70394,157.722595 C1035.1348,166.96377 1019.52702,171.512774 1003.75274,171.371761 C988.012834,171.231055 972.109274,166.42076 958.899876,156.95339 C946.933165,148.376674 937.175656,135.978777 931.754438,119.764814 C928.376067,109.666085 925.806453,93.7294329 929.054681,77.2965464 C931.390615,65.4789872 936.73236,53.4060792 946.934262,43.0572424 C964.841638,24.8865225 986.373585,18.5440667 1006.38071,19.8122586 Z M987.874361,71.479292 C987.431638,71.2925026 986.954052,71.2795837 986.523078,71.4148109 C986.096957,71.5485154 985.716427,71.8270568 985.46032,72.2257665 C985.286768,72.5834103 985.274109,73.0000953 985.4277,73.3676782 C985.584175,73.7421654 985.896998,74.0306914 986.370091,74.1937447 C991.123572,76.8256995 995.241756,80.4673591 998.432814,84.8630216 C998.972072,85.5230487 999.511355,86.2013825 1000.04585,86.8916761 L1000.40596,87.3595223 C1000.2336,87.4515752 1000.06088,87.5442374 999.888469,87.6375346 C992.159219,91.8200613 985.157356,97.2227977 979.152646,103.639885 C978.915358,103.954162 978.829862,104.356781 978.919031,104.739175 C979.008308,105.131271 979.265592,105.460048 979.647514,105.65287 C980.071029,105.897206 980.551059,105.973024 981.004308,105.894761 C981.457583,105.816492 981.884033,105.584132 982.21754,105.193044 C987.9306,99.1408071 994.581803,94.0459607 1002.5535,90.2502804 C1007.17924,96.5509075 1010.8781,103.485464 1013.53013,110.837986 C1013.70535,111.279474 1014.0322,111.618098 1014.42932,111.815309 C1014.82718,112.01289 1015.29556,112.068583 1015.80847,111.930259 C1016.21901,111.866 1016.5849,111.630354 1016.81336,111.282298 C1017.04,110.939708 1017.11296,110.521506 1017.02054,110.125234 C1014.26776,102.482275 1010.43075,95.2783013 1005.63086,88.7265259 C1005.521,88.5765677 1005.41066,88.4269874 1005.29985,88.2777872 C1005.461,88.1819876 1005.62434,88.0882553 1005.78837,87.9956401 C1009.43989,85.933946 1013.38905,84.4505907 1017.56515,83.589576 C1017.98641,83.560645 1018.37825,83.3574469 1018.6493,83.0321851 C1018.91237,82.7165005 1019.03705,82.308669 1018.99722,81.9000635 C1018.8729,81.4642893 1018.59412,81.1103978 1018.23491,80.8847511 C1017.86652,80.6533381 1017.41354,80.5568029 1016.95588,80.6453518 C1012.34298,81.5807078 1007.90066,83.2238386 1003.14662,85.3846497 C1001.44094,83.1895926 999.71169,81.1274011 997.965222,79.279616 C995.154672,76.0343259 991.722318,73.382692 987.874361,71.479292 Z" id="Shape"></path>
            <path d="M1164.80615,19.4351193 C1174.1404,17.6741498 1187.33576,18.8547986 1198.05415,26.6349758 C1205.93375,32.354555 1212.4866,41.6385593 1215.16447,55.964226 C1217.09444,66.2908793 1216.13476,75.5240811 1215.08685,85.5407153 C1213.74027,98.4121977 1212.25308,112.58776 1216.70679,132.116565 C1219.54223,144.545552 1215.89634,156.008585 1209.07432,163.173408 C1205.50355,166.923607 1201.06207,169.49872 1196.21777,170.43381 C1191.70661,171.304594 1186.84357,170.755677 1182.00223,168.398523 C1178.89698,167.152008 1176.04892,165.338796 1173.60544,163.048337 C1169.25944,155.402683 1166.16554,147.277278 1164.33291,138.824461 C1158.54309,114.616095 1158.35919,83.1568339 1170.59543,65.0469626 C1170.7807,64.7472313 1170.83213,64.4012721 1170.76488,64.0801548 C1170.69661,63.7541598 1170.50608,63.4537751 1170.2092,63.2532466 C1169.91257,63.0528971 1169.56305,62.9887648 1169.23543,63.0472795 C1168.90838,63.1056921 1168.60312,63.2863177 1168.3919,63.5792776 C1155.81742,82.2191782 1155.81652,114.571557 1161.77548,139.460623 C1163.5182,147.244608 1166.23333,154.778952 1169.85428,161.885344 C1166.43592,166.547519 1161.87198,169.226544 1156.9592,170.281568 C1152.05185,171.335427 1146.79642,170.768871 1142.04455,168.398987 C1138.21528,166.887834 1134.79651,164.496706 1132.06173,161.419161 C1129.50678,157.547153 1127.43191,153.460043 1125.83972,149.185926 C1117.678,128.398643 1113.18844,94.031582 1125.6042,65.9178588 C1125.75246,65.583184 1125.75077,65.2203444 1125.6284,64.9040619 C1125.50578,64.5871342 1125.26206,64.3169619 1124.92673,64.168408 C1124.59206,64.0201448 1124.22922,64.0218391 1123.91293,64.1442101 C1123.59601,64.2668307 1123.32583,64.5105467 1123.17759,64.8451671 C1110.46932,93.6523313 1115.02593,128.858395 1123.37081,150.154872 C1124.83218,153.953022 1126.63517,157.611207 1128.75844,161.084348 C1125.67424,164.918388 1121.8542,167.13164 1117.73727,168.196633 C1113.62074,169.261523 1109.20738,169.178377 1104.99743,167.817411 C1095.78518,163.802737 1087.21771,150.999432 1082.33967,132.191342 C1078.11799,115.913948 1076.64589,95.1499304 1079.90045,71.8228059 C1082.11801,56.0050053 1087.41145,44.5700164 1094.38698,36.4328354 C1102.86626,26.5414714 1113.83806,21.5129427 1124.85422,19.4343644 C1134.20223,17.7512892 1143.84041,19.0697362 1152.38802,23.1977272 C1156.37386,21.4823401 1160.53985,20.2211384 1164.80615,19.4351193 Z" id="Path"></path>
            <path d="M1310.91998,25.9307693 C1324.41404,37.5811129 1332.40441,54.3279083 1332.96809,72.122574 C1332.8187,72.5431128 1332.76439,72.727116 1332.75156,72.9274727 C1331.30355,90.5280342 1320.96716,106.171369 1305.3458,114.406381 C1298.00691,118.781102 1289.76365,120.964251 1281.52249,120.956734 C1273.27267,120.949209 1265.02496,118.746412 1257.6887,114.349248 C1257.36645,114.145105 1257.00441,114.091955 1256.67088,114.166282 C1256.33824,114.240412 1256.03405,114.441417 1255.83613,114.753547 C1255.6382,115.063456 1255.58536,115.424562 1255.65923,115.757458 C1255.7332,116.090764 1255.93417,116.395965 1256.24577,116.594 C1263.98371,121.253558 1272.68836,123.598835 1281.40075,123.627474 C1290.11842,123.656129 1298.84383,121.36534 1306.61626,116.752748 C1317.78158,110.692784 1326.57069,101.06744 1331.58119,89.4141908 C1335.05755,90.3230141 1340.16981,93.2889278 1343.00943,99.9239852 C1344.81502,104.142936 1345.7055,109.85762 1344.46266,117.563406 C1341.55076,135.63765 1334.22859,148.935684 1323.56726,157.669514 C1312.37057,166.841907 1297.47828,170.987981 1280.0861,170.300586 C1270.24939,169.912041 1259.67547,165.548639 1250.4848,158.744168 C1241.31763,151.957099 1233.53005,142.745811 1229.21952,132.663428 C1215.46096,100.498442 1219.9631,69.6287824 1236.10907,45.581639 C1245.60832,31.4337744 1258.6921,21.7395761 1272.38928,18.127823 C1285.52782,14.6633734 1299.23492,16.7842417 1310.91998,25.9307693 Z M1285.20788,63.9842379 C1284.8925,63.7988245 1284.53103,63.7589741 1284.20212,63.8444235 C1283.87298,63.9299294 1283.57637,64.1408988 1283.39052,64.4570119 C1283.21165,64.7591943 1283.16144,65.1188891 1283.24964,65.4561164 C1283.33818,65.7963911 1283.55593,66.0881425 1283.85766,66.2650211 C1288.12202,68.7883366 1290.40149,72.6717549 1291.22644,76.936255 C1292.20162,81.9773093 1291.1321,87.5538772 1288.91261,91.9995542 C1288.76151,92.3250439 1288.75372,92.6804574 1288.86349,92.9947617 C1288.97346,93.3096345 1289.20138,93.5832845 1289.52187,93.7439612 C1289.84246,93.9042595 1290.19825,93.9225079 1290.51609,93.8216762 C1290.82982,93.7221482 1291.10663,93.5065824 1291.27642,93.1971687 C1293.8099,88.1320447 1294.91912,81.8043928 1293.71679,76.069481 C1292.70494,71.2430894 1290.04834,66.8381011 1285.20788,63.9842379 Z" id="Shape"></path>
            <path d="M1383.97379,29.9767676 C1392.00071,20.2213376 1403.34931,15.9237043 1415.21061,17.3808166 C1427.02676,18.8323838 1439.36772,26.0084855 1449.4126,39.25097 C1455.38956,47.1304201 1458.27772,55.1493032 1458.88962,62.8023007 C1459.59116,71.5763461 1457.29975,79.8738515 1453.21592,86.9389494 C1448.34596,95.3640762 1440.92681,102.033022 1433.01188,105.668164 C1425.29747,109.211212 1417.11897,109.86886 1410.33825,106.529747 C1404.79663,103.411483 1399.99228,99.182322 1396.21019,94.1073109 C1391.83764,87.5171491 1389.06669,80.0297304 1388.10036,72.2019923 C1388.06149,71.8444329 1387.88198,71.5364375 1387.62284,71.3276263 C1387.36422,71.119236 1387.02631,71.0097065 1386.67015,71.0485134 C1386.31256,71.0873817 1386.00454,71.2669432 1385.79576,71.5263592 C1385.58727,71.7854071 1385.47785,72.1240097 1385.51764,72.4909227 C1386.74015,86.2600261 1394.02078,98.7758699 1405.38744,106.647638 C1406.44975,108.966496 1407.10101,116.316608 1407.53513,124.30079 L1407.58521,125.242766 L1407.60952,125.71545 L1407.66555,126.842729 C1408.02155,134.174447 1408.22431,141.632903 1408.33513,145.709669 C1408.36926,146.965337 1408.39464,147.899476 1408.41307,148.408702 C1408.7192,156.677295 1405.73165,163.463443 1400.99239,168.124345 C1395.86753,173.164461 1388.68783,175.721243 1381.37568,174.973498 C1375.13351,174.335168 1368.79036,171.289866 1363.55631,165.309332 C1359.054,160.164902 1355.36915,152.84024 1353.29543,142.995002 C1345.97047,108.21465 1346.32297,67.0657665 1353.53038,39.4912465 C1356.96666,26.3428067 1363.37614,20.0700528 1369.35328,18.4183224 C1373.43596,17.290107 1377.34585,18.2955009 1380.09467,20.7815998 C1382.43139,22.8949825 1383.93752,26.0874514 1383.97379,29.9767676 Z" id="Path"></path>
            <path d="M1488.03911,29.8094644 C1499.38758,23.3771035 1514.1951,19.4698663 1531.60258,20.2084344 C1540.73467,20.5966863 1548.75755,24.1419836 1554.10389,30.2192193 C1559.0967,35.8946112 1561.76645,43.7840563 1560.80187,53.4076356 C1559.90578,59.5171939 1558.18903,65.454734 1555.69459,71.0768603 C1553.36781,76.0182452 1550.34402,80.587699 1546.7203,84.6471261 C1543.88765,87.9253663 1540.10997,90.2463601 1535.90628,91.2942232 C1531.04693,92.1093799 1526.09836,91.0593611 1522.01875,88.3657894 C1517.41774,85.3350227 1513.94781,80.8660229 1512.15197,75.6564002 C1509.04018,68.1034067 1508.33433,59.7738088 1510.13331,51.8041171 C1510.22526,51.4470995 1510.17069,51.1006936 1510.00971,50.8139848 C1509.84841,50.5267033 1509.5803,50.2992959 1509.24076,50.1956902 C1508.90318,50.0918201 1508.55521,50.1302228 1508.26193,50.2779496 C1507.97481,50.4225781 1507.74024,50.6718501 1507.61843,50.9960189 C1505.65067,59.5563652 1506.37829,68.5180456 1509.70245,76.6503376 C1511.73491,82.432218 1515.61067,87.3596509 1520.72885,90.6841225 C1525.36625,93.7056711 1530.97677,94.8533554 1536.42598,93.8938614 C1540.72522,92.8721567 1544.63895,90.6308374 1547.69423,87.4354108 C1552.59262,89.4080707 1556.44498,92.3440511 1559.59422,95.9664256 C1567.62368,105.33816 1570.40303,118.121115 1566.9845,129.984393 C1562.35172,148.272485 1553.12183,162.325646 1541.4684,167.942629 C1529.15455,173.878464 1510.81004,176.909027 1494.10021,171.70336 C1481.38873,167.743312 1469.61718,159.027596 1462.15613,143.205671 C1459.31272,137.178423 1458.51081,129.81809 1459.49917,122.928308 C1460.49123,116.012785 1463.2877,109.579657 1467.59842,105.429404 C1471.21183,102.945112 1475.33913,101.486289 1479.62781,101.149233 C1488.34284,100.249577 1498.98206,102.777379 1508.65961,110.714181 C1516.39934,117.061731 1523.52929,126.875543 1528.54487,141.180771 C1528.66544,141.526002 1528.91488,141.789645 1529.22044,141.936617 C1529.52584,142.083509 1529.88734,142.113852 1530.23381,141.991982 C1530.57948,141.871561 1530.84295,141.622624 1530.99,141.317546 C1531.13746,141.011607 1531.16793,140.649305 1531.04734,140.304029 C1525.78103,125.275026 1518.2488,115.010061 1510.04729,108.39382 C1499.7955,100.123603 1488.50646,97.5640131 1479.35681,98.5119726 C1478.92457,98.5592112 1478.49469,98.6135413 1478.07426,98.6725906 C1471.75168,93.7976643 1467.44191,87.5357658 1465.0489,80.6109399 C1462.65587,73.6860821 1462.17961,66.0982916 1463.90834,58.6699651 C1466.59111,47.845004 1475.04934,37.1721172 1488.03911,29.8094644 Z" id="Path"></path>
        </g>
    </g>
</svg>