<?xml version="1.0" encoding="UTF-8"?>
<svg width="1569.42227px" height="188.088286px" viewBox="0 0 1569.42227 188.088286" version="1.1" xmlns="http://www.w3.org/2000/svg" xmlns:xlink="http://www.w3.org/1999/xlink">
    <title>Reggi Roomers</title>
    <g id="Page-1" stroke="none" stroke-width="1" fill="none" fill-rule="evenodd">
        <g id="Reggi-Roomers" transform="translate(0.999414, 0.992247)" fill="#FFFFFF" fill-rule="nonzero" stroke="#FDAA82">
            <path d="M80.8578779,5.58884607 C93.5965626,7.89954125 105.675534,17.7969146 116.88058,33.4594359 C128.42106,49.5677068 132.332169,65.9040306 131.424169,80.1662584 C130.333143,97.3033226 122.280206,111.444761 112.115835,118.660453 C117.385197,120.84512 121.834998,124.400946 125.098801,128.830908 C128.542129,133.504539 130.665399,139.151116 131.038229,145.18564 C131.514167,152.562675 128.856743,158.386137 124.665502,162.888834 C119.234203,168.723737 111.209322,172.329773 104.133681,174.206649 C93.0740902,176.832572 81.4422254,175.11871 71.623307,169.418805 C61.9904927,163.905625 45.9450976,147.117694 41.5017701,115.395461 C45.6892534,113.181558 48.6312535,109.856255 49.829755,105.789665 C49.9433923,105.507089 49.9689375,105.256545 49.9286225,105.017061 C49.8882986,104.777525 49.7820846,104.54904 49.6147332,104.360011 C49.4470135,104.170566 49.2327997,104.036721 48.9996562,103.96705 C48.767501,103.897674 48.5165382,103.891952 48.2721717,103.959149 C48.02882,104.024966 47.8149314,104.157471 47.6498865,104.335142 C47.4845482,104.513129 47.368178,104.736468 47.3204618,104.983724 C46.2191672,108.685181 43.7439601,111.168805 40.4509695,112.626579 C36.8689435,114.212307 32.3060272,114.574677 27.5338357,113.894772 C27.2779862,113.849492 27.0371474,113.87379 26.8182407,113.956067 C26.5999376,114.038118 26.4034355,114.177852 26.2512539,114.368505 C26.0997252,114.556401 26.0058475,114.778515 25.9728978,115.009465 C25.9398459,115.241131 25.9680767,115.481706 26.0610049,115.705775 C26.1538773,115.929708 26.3040253,116.11937 26.4913055,116.25953 C26.6785551,116.399667 26.9029064,116.490302 27.144157,116.516336 C30.8994411,117.109282 34.7101907,116.963632 38.3846742,116.08965 C38.5625224,116.047348 38.7398875,116.003379 38.9169473,115.961903 C38.9425025,116.14209 38.9685452,116.322627 38.9950785,116.503513 C42.5583781,140.795713 52.7867708,156.501054 61.7153691,165.130291 C58.3147094,169.951273 53.7101948,172.509244 48.5924459,173.438283 C43.4237073,174.376578 37.7285365,173.651421 32.1893647,171.207491 C22.5286098,166.945084 13.3288199,157.446091 8.28813292,142.434018 C-2.31195186,109.569677 -3.34488024,74.3662716 5.31092197,40.9297922 C8.8471548,27.9943063 14.8217447,20.8510181 21.1348069,17.4809258 C25.246236,15.2861279 29.5119957,14.6845776 33.3788986,15.1438558 C37.7034218,15.6574864 41.526986,17.5003656 44.0890423,19.9228159 C56.833931,7.72247731 69.1415175,3.46359232 80.8578779,5.58884607 Z M75.2104546,46.3303022 L75.0625134,46.3373824 C74.8175289,46.3631119 74.5823946,46.4579321 74.3860569,46.6135202 C74.0934026,46.8439673 73.9215006,47.1694268 73.8789064,47.5108103 C73.83633,47.8520511 73.9229478,48.2092858 74.1488704,48.5023751 C80.1179437,56.5241039 82.1841789,66.7871029 79.7862952,76.4854783 C78.9347069,81.0860025 76.8589103,85.3727409 73.7443659,88.9222842 C73.4785675,89.1793674 73.3413661,89.5196632 73.3338044,89.8627671 C73.3262277,90.2065552 73.4487373,90.5532764 73.7028334,90.8222165 C73.9446632,91.0797004 74.2791082,91.228405 74.6307176,91.2373228 C74.9723597,91.2437939 75.3054476,91.1159715 75.5569918,90.8811256 C79.0334876,86.9959032 81.384056,82.2356895 82.3660734,77.0885473 C84.9474099,66.5958179 82.6984578,55.4972323 76.2344988,46.8361855 C76.0250262,46.566033 75.7079502,46.3835591 75.3593703,46.3402033 L75.2104546,46.3303022 Z" id="Shape"></path>
            <path d="M223.926272,25.4316703 C237.420328,37.0820139 245.410695,53.8288093 245.974381,71.623475 C245.824989,72.0440138 245.770683,72.228017 245.757846,72.4283737 C244.309835,90.0289352 233.973453,105.67227 218.352085,113.907282 C211.013199,118.282003 202.769935,120.465152 194.528777,120.457635 C186.278957,120.45011 178.031247,118.247313 170.694988,113.850149 C170.372741,113.646006 170.010699,113.592856 169.677175,113.667183 C169.34453,113.741313 169.040337,113.942318 168.842419,114.254448 C168.644494,114.564357 168.591651,114.925463 168.665523,115.258359 C168.739486,115.591665 168.94046,115.896866 169.252063,116.094901 C176.989998,120.754459 185.694652,123.099736 194.40704,123.128375 C203.124707,123.15703 211.850116,120.866241 219.622551,116.253649 C230.787871,110.193685 239.576982,100.568341 244.587475,88.9150918 C248.063838,89.8239151 253.176102,92.7898288 256.015717,99.4248862 C257.821307,103.643837 258.711786,109.358521 257.468948,117.064307 C254.557046,135.138551 247.234883,148.436585 236.573547,157.170415 C225.376858,166.342808 210.484574,170.488882 193.092391,169.801487 C183.25568,169.412942 172.681762,165.04954 163.491087,158.245069 C154.323916,151.458 146.536337,142.246712 142.225805,132.164329 C128.467247,99.9993433 132.96939,69.1296834 149.115363,45.08254 C158.614608,30.9346754 171.698393,21.2404771 185.39557,17.628724 C198.534114,14.1642744 212.241207,16.2851427 223.926272,25.4316703 Z M198.214171,63.4851389 C197.898794,63.2997255 197.537324,63.2598751 197.208407,63.3453245 C196.879272,63.4308304 196.582657,63.6417998 196.396811,63.9579129 C196.217938,64.2600953 196.167733,64.6197901 196.25593,64.9570174 C196.34447,65.2972921 196.562215,65.5890435 196.863949,65.7659221 C201.128305,68.2892376 203.407776,72.1726559 204.23273,76.437156 C205.207907,81.4782103 204.138389,87.0547782 201.918904,91.5004552 C201.767801,91.8259449 201.760009,92.1813584 201.869781,92.4956627 C201.979751,92.8105355 202.207675,93.0841855 202.528159,93.2448622 C202.848755,93.4051605 203.204539,93.4234089 203.522379,93.3225772 C203.83611,93.2230492 204.112919,93.0074834 204.282711,92.6980697 C206.816189,87.6329457 207.92541,81.3052938 206.723083,75.570382 C205.711228,70.7439904 203.054631,66.3390021 198.214171,63.4851389 Z" id="Shape"></path>
            <path d="M343.850519,16.1093986 C348.830297,16.9525413 353.391558,19.1023383 357.138293,22.228191 C360.884293,25.3534303 363.816082,29.454339 365.539587,34.2045148 C375.251955,58.843533 373.973646,90.4660446 373.765608,95.5835714 C373.750315,95.9597676 373.739459,96.1820195 373.742359,96.2372332 C374.803551,118.469455 369.111045,140.502403 357.41392,159.438204 C351.479154,168.49622 343.376579,175.912356 333.837029,181.021795 C322.315821,187.144703 308.785042,188.275085 296.406008,184.147412 C284.128428,180.483037 272.118643,170.547306 262.712517,152.262838 C259.729555,145.664316 259.199786,138.242938 261.207009,131.309995 C268.67983,118.671693 276.790658,113.171133 284.726002,112.162854 C291.317817,111.578992 297.880956,113.387755 303.226897,117.253581 C303.466657,117.591288 303.599136,117.738461 303.750976,117.849848 C304.727476,118.549714 305.699215,119.195245 306.663894,119.781617 C307.945311,120.817411 309.132439,121.879027 310.251804,122.969948 C316.515943,128.750929 321.0818,136.131156 323.461355,144.318268 C323.541663,144.722721 323.750307,145.020767 324.031773,145.211346 C324.312564,145.401469 324.665852,145.48455 325.026772,145.414976 C325.386795,145.346442 325.684796,145.138255 325.875474,144.857422 C326.063561,144.580404 326.147251,144.232643 326.082377,143.87812 C324.111098,136.641539 320.424611,129.986041 315.334064,124.477382 C314.908892,124.017289 314.474974,123.566331 314.034228,123.124959 C314.620792,123.32289 315.217803,123.499359 315.82437,123.653428 C320.360192,124.805531 325.024219,124.601847 329.301598,123.210072 C333.579189,121.818228 337.470089,119.238177 340.466468,115.62933 C340.705588,115.353823 340.809909,115.00726 340.785448,114.669825 C340.760947,114.331846 340.607292,114.003023 340.329918,113.763037 C340.05441,113.523917 339.707847,113.419596 339.370413,113.444058 C339.032433,113.468558 338.70361,113.622213 338.463997,113.899158 C334.966807,117.937798 330.123835,120.836822 324.457046,121.51987 C319.545045,122.11194 314.007301,121.040816 308.186999,117.574487 C301.606989,111.762915 293.054411,108.877561 284.394131,109.521547 C279.934514,110.133646 275.7047,111.87313 272.104187,114.574101 C257.679395,99.334363 260.58074,72.9131925 262.054291,67.1059856 C266.3459,49.20984 277.937102,33.9315339 294.012347,24.9813215 C309.132516,16.4432974 326.711366,13.3134203 343.850519,16.1093986 Z M311.567083,56.6153414 L311.431205,56.6231001 C311.161266,56.6534071 310.904636,56.7716719 310.704621,56.9638836 C306.469116,61.9902766 304.649569,68.6240561 305.737849,75.1442003 C306.407727,81.9440268 309.402217,88.3043055 314.215916,93.1556124 C314.478695,93.4338272 314.842154,93.568351 315.208933,93.5313362 C315.577437,93.4943173 315.907147,93.2876045 316.100559,92.9747799 C316.345701,92.5661238 316.435299,92.093459 316.375677,91.6403317 C316.316112,91.1876325 316.107591,90.754476 315.76006,90.4184965 C311.646642,86.2491651 309.097894,80.801788 308.535236,74.9860814 C307.603128,69.5618827 309.08899,64.0051979 312.601354,59.7692683 C312.909861,59.4038495 313.067063,58.9597443 313.074847,58.512972 C313.082644,58.0654856 312.940584,57.6153587 312.617092,57.198418 C312.416072,56.8764431 312.080459,56.66522 311.703975,56.6226315 L311.567083,56.6153414 Z" id="Shape"></path>
            <path d="M462.155519,16.1093986 C467.135297,16.9525413 471.696558,19.1023383 475.443293,22.228191 C479.189293,25.3534303 482.121082,29.454339 483.844587,34.2045148 C493.556955,58.843533 492.278646,90.4660446 492.070608,95.5835714 C492.055315,95.9597676 492.044459,96.1820195 492.047359,96.2372332 C493.108551,118.469455 487.416045,140.502403 475.71892,159.438204 C469.784154,168.49622 461.681579,175.912356 452.142029,181.021795 C440.620821,187.144703 427.090042,188.275085 414.711008,184.147412 C402.433428,180.483037 390.423643,170.547306 381.017517,152.262838 C378.034555,145.664316 377.504786,138.242938 379.512009,131.309995 C386.98483,118.671693 395.095658,113.171133 403.031002,112.162854 C409.622817,111.578992 416.185956,113.387755 421.531897,117.253581 C421.771657,117.591288 421.904136,117.738461 422.055976,117.849848 C423.032476,118.549714 424.004215,119.195245 424.968894,119.781617 C426.250311,120.817411 427.437439,121.879027 428.556804,122.969948 C434.820943,128.750929 439.3868,136.131156 441.766355,144.318268 C441.846663,144.722721 442.055307,145.020767 442.336773,145.211346 C442.617564,145.401469 442.970852,145.48455 443.331772,145.414976 C443.691795,145.346442 443.989796,145.138255 444.180474,144.857422 C444.368561,144.580404 444.452251,144.232643 444.387377,143.87812 C442.416098,136.641539 438.729611,129.986041 433.639064,124.477382 C433.213892,124.017289 432.779974,123.566331 432.339228,123.124959 C432.925792,123.32289 433.522803,123.499359 434.12937,123.653428 C438.665192,124.805531 443.329219,124.601847 447.606598,123.210072 C451.884189,121.818228 455.775089,119.238177 458.771468,115.62933 C459.010588,115.353823 459.114909,115.00726 459.090448,114.669825 C459.065947,114.331846 458.912292,114.003023 458.634918,113.763037 C458.35941,113.523917 458.012847,113.419596 457.675413,113.444058 C457.337433,113.468558 457.00861,113.622213 456.768997,113.899158 C453.271807,117.937798 448.428835,120.836822 442.762046,121.51987 C437.850045,122.11194 432.312301,121.040816 426.491999,117.574487 C419.911989,111.762915 411.359411,108.877561 402.699131,109.521547 C398.239514,110.133646 394.0097,111.87313 390.409187,114.574101 C375.984395,99.334363 378.88574,72.9131925 380.359291,67.1059856 C384.6509,49.20984 396.242102,33.9315339 412.317347,24.9813215 C427.437516,16.4432974 445.016366,13.3134203 462.155519,16.1093986 Z M429.872083,56.6153414 L429.736205,56.6231001 C429.466266,56.6534071 429.209636,56.7716719 429.009621,56.9638836 C424.774116,61.9902766 422.954569,68.6240561 424.042849,75.1442003 C424.712727,81.9440268 427.707217,88.3043055 432.520916,93.1556124 C432.783695,93.4338272 433.147154,93.568351 433.513933,93.5313362 C433.882437,93.4943173 434.212147,93.2876045 434.405559,92.9747799 C434.650701,92.5661238 434.740299,92.093459 434.680677,91.6403317 C434.621112,91.1876325 434.412591,90.754476 434.06506,90.4184965 C429.951642,86.2491651 427.402894,80.801788 426.840236,74.9860814 C425.908128,69.5618827 427.39399,64.0051979 430.906354,59.7692683 C431.214861,59.4038495 431.372063,58.9597443 431.379847,58.512972 C431.387644,58.0654856 431.245584,57.6153587 430.922092,57.198418 C430.721072,56.8764431 430.385459,56.66522 430.008975,56.6226315 L429.872083,56.6153414 Z" id="Shape"></path>
            <path d="M512.773189,63.3206982 C524.009269,56.3199568 538.935594,58.7130525 548.117674,61.9228849 C551.425847,63.0815075 554.377583,65.9144109 556.698951,69.8034292 C559.072695,73.7801945 560.791142,78.8591311 561.574904,84.3165135 C562.956077,93.9337146 561.430329,104.715393 555.53663,112.700072 C553.442186,114.960958 554.699461,121.996274 555.991181,130.121856 C557.274292,138.193283 558.728926,147.404405 557.690984,154.547516 C556.93643,159.740357 554.867274,163.837389 550.60233,165.754681 C537.6795,171.562341 523.237071,171.774754 516.786839,169.331605 C510.233304,167.368867 504.787932,157.471809 501.366619,143.542998 C497.883747,129.36357 496.454644,111.080284 497.890197,93.2357934 C499.189186,77.1212876 505.154716,68.067457 512.773189,63.3206982 Z M510.070004,5.78501652 C518.329929,0.205334216 529.470155,-2.31965017 539.619197,0.959642825 C547.628718,3.54681792 552.664327,8.6607279 555.25558,14.7608671 C558.251872,21.8145191 557.970639,30.2019006 555.196736,37.5443433 C552.469115,44.7642785 547.335445,50.9627415 540.579364,53.9049886 C534.765632,56.4368466 527.743476,56.5731888 519.995044,52.8504385 C511.251393,48.6472713 499.728381,40.5589196 497.814415,29.3222293 C497.068367,24.9403862 497.9466,20.6150316 500.00756,16.6721534 C502.201658,12.474563 505.738786,8.71080853 510.070004,5.78501652 Z" id="Shape"></path>
            <path d="M724.962878,5.58884607 C737.701563,7.89954125 749.780534,17.7969146 760.98558,33.4594359 C772.52606,49.5677068 776.437169,65.9040306 775.529169,80.1662584 C774.438143,97.3033226 766.385206,111.444761 756.220835,118.660453 C761.490197,120.84512 765.939998,124.400946 769.203801,128.830908 C772.647129,133.504539 774.770399,139.151116 775.143229,145.18564 C775.619167,152.562675 772.961743,158.386137 768.770502,162.888834 C763.339203,168.723737 755.314322,172.329773 748.238681,174.206649 C737.17909,176.832572 725.547225,175.11871 715.728307,169.418805 C706.095493,163.905625 690.050098,147.117694 685.60677,115.395461 C689.794253,113.181558 692.736253,109.856255 693.934755,105.789665 C694.048392,105.507089 694.073938,105.256545 694.033622,105.017061 C693.993299,104.777525 693.887085,104.54904 693.719733,104.360011 C693.552014,104.170566 693.3378,104.036721 693.104656,103.96705 C692.872501,103.897674 692.621538,103.891952 692.377172,103.959149 C692.13382,104.024966 691.919931,104.157471 691.754886,104.335142 C691.589548,104.513129 691.473178,104.736468 691.425462,104.983724 C690.324167,108.685181 687.84896,111.168805 684.55597,112.626579 C680.973943,114.212307 676.411027,114.574677 671.638836,113.894772 C671.382986,113.849492 671.142147,113.87379 670.923241,113.956067 C670.704938,114.038118 670.508435,114.177852 670.356254,114.368505 C670.204725,114.556401 670.110847,114.778515 670.077898,115.009465 C670.044846,115.241131 670.073077,115.481706 670.166005,115.705775 C670.258877,115.929708 670.409025,116.11937 670.596306,116.25953 C670.783555,116.399667 671.007906,116.490302 671.249157,116.516336 C675.004441,117.109282 678.815191,116.963632 682.489674,116.08965 C682.667522,116.047348 682.844887,116.003379 683.021947,115.961903 C683.047503,116.14209 683.073545,116.322627 683.100079,116.503513 C686.663378,140.795713 696.891771,156.501054 705.820369,165.130291 C702.419709,169.951273 697.815195,172.509244 692.697446,173.438283 C687.528707,174.376578 681.833537,173.651421 676.294365,171.207491 C666.63361,166.945084 657.43382,157.446091 652.393133,142.434018 C641.793048,109.569677 640.76012,74.3662716 649.415922,40.9297922 C652.952155,27.9943063 658.926745,20.8510181 665.239807,17.4809258 C669.351236,15.2861279 673.616996,14.6845776 677.483899,15.1438558 C681.808422,15.6574864 685.631986,17.5003656 688.194042,19.9228159 C700.938931,7.72247731 713.246518,3.46359232 724.962878,5.58884607 Z M719.315455,46.3303022 L719.167513,46.3373824 C718.922529,46.3631119 718.687395,46.4579321 718.491057,46.6135202 C718.198403,46.8439673 718.026501,47.1694268 717.983906,47.5108103 C717.94133,47.8520511 718.027948,48.2092858 718.25387,48.5023751 C724.222944,56.5241039 726.289179,66.7871029 723.891295,76.4854783 C723.039707,81.0860025 720.96391,85.3727409 717.849366,88.9222842 C717.583568,89.1793674 717.446366,89.5196632 717.438804,89.8627671 C717.431228,90.2065552 717.553737,90.5532764 717.807833,90.8222165 C718.049663,91.0797004 718.384108,91.228405 718.735718,91.2373228 C719.07736,91.2437939 719.410448,91.1159715 719.661992,90.8811256 C723.138488,86.9959032 725.489056,82.2356895 726.471073,77.0885473 C729.05241,66.5958179 726.803458,55.4972323 720.339499,46.8361855 C720.130026,46.566033 719.81295,46.3835591 719.46437,46.3402033 L719.315455,46.3303022 Z" id="Shape"></path>
            <path d="M856.745002,19.3131596 C880.982908,20.8495281 902.974315,33.5677534 913.601983,49.959983 C927.049646,70.6926919 927.705345,101.321134 922.635563,120.482463 C918.375359,136.597072 909.470226,148.840438 898.068233,157.223496 C885.499095,166.464671 869.891306,171.013675 854.117029,170.872662 C838.377127,170.731956 822.473567,165.921661 809.264169,156.454291 C797.297458,147.877575 787.539949,135.479678 782.118731,119.265715 C778.74036,109.166986 776.170746,93.2303339 779.418974,76.7974474 C781.754908,64.9798882 787.096653,52.9069802 797.298555,42.5581434 C815.205931,24.3874235 836.737878,18.0449677 856.745002,19.3131596 Z M838.238654,70.980193 C837.795931,70.7934036 837.318345,70.7804847 836.887371,70.9157119 C836.46125,71.0494164 836.08072,71.3279578 835.824613,71.7266675 C835.651061,72.0843113 835.638402,72.5009963 835.791993,72.8685792 C835.948468,73.2430664 836.261291,73.5315924 836.734384,73.6946457 C841.487865,76.3266005 845.606049,79.9682601 848.797107,84.3639226 C849.336365,85.0239497 849.875648,85.7022835 850.410144,86.3925771 L850.770249,86.8604233 C850.597897,86.9524762 850.425174,87.0451384 850.252762,87.1384356 C842.523512,91.3209623 835.521649,96.7236987 829.516939,103.140786 C829.279651,103.455063 829.194155,103.857682 829.283324,104.240076 C829.372601,104.632172 829.629885,104.960949 830.011807,105.153771 C830.435322,105.398107 830.915352,105.473925 831.368601,105.395662 C831.821876,105.317393 832.248326,105.085033 832.581833,104.693945 C838.294893,98.6417081 844.946096,93.5468617 852.917786,89.7511814 C857.543532,96.0518085 861.242393,102.986365 863.89442,110.338887 C864.069639,110.780375 864.396493,111.118999 864.793607,111.31621 C865.191467,111.513791 865.659851,111.569484 866.172756,111.43116 C866.583296,111.366901 866.949185,111.131255 867.177653,110.783199 C867.404285,110.440609 867.477254,110.022407 867.384831,109.626135 C864.632046,101.983176 860.795036,94.7792023 855.99515,88.2274269 C855.885289,88.0774687 855.77495,87.9278884 855.664136,87.7786882 C855.825285,87.6828886 855.988629,87.5891563 856.152662,87.4965411 C859.804181,85.434847 863.753341,83.9514917 867.929443,83.090477 C868.350702,83.061546 868.742539,82.8583479 869.01359,82.5330861 C869.27666,82.2174015 869.401342,81.80957 869.361513,81.4009645 C869.237192,80.9651903 868.958406,80.6112988 868.5992,80.3856521 C868.230815,80.1542391 867.777831,80.0577039 867.320172,80.1462528 C862.707274,81.0816088 858.264954,82.7247396 853.510909,84.8855507 C851.805229,82.6904936 850.075983,80.6283021 848.329515,78.780517 C845.518965,75.5352269 842.086611,72.883593 838.238654,70.980193 Z" id="Shape"></path>
            <path d="M1005.881,19.3131596 C1030.11891,20.8495281 1052.11031,33.5677534 1062.73798,49.959983 C1076.18565,70.6926919 1076.84135,101.321134 1071.77156,120.482463 C1067.51136,136.597072 1058.60623,148.840438 1047.20423,157.223496 C1034.63509,166.464671 1019.02731,171.013675 1003.25303,170.872662 C987.513127,170.731956 971.609567,165.921661 958.400169,156.454291 C946.433458,147.877575 936.675949,135.479678 931.254731,119.265715 C927.87636,109.166986 925.306746,93.2303339 928.554974,76.7974474 C930.890908,64.9798882 936.232653,52.9069802 946.434555,42.5581434 C964.341931,24.3874235 985.873878,18.0449677 1005.881,19.3131596 Z M987.374654,70.980193 C986.931931,70.7934036 986.454345,70.7804847 986.023371,70.9157119 C985.59725,71.0494164 985.21672,71.3279578 984.960613,71.7266675 C984.787061,72.0843113 984.774402,72.5009963 984.927993,72.8685792 C985.084468,73.2430664 985.397291,73.5315924 985.870384,73.6946457 C990.623865,76.3266005 994.742049,79.9682601 997.933107,84.3639226 C998.472365,85.0239497 999.011648,85.7022835 999.546144,86.3925771 L999.906249,86.8604233 C999.733897,86.9524762 999.561174,87.0451384 999.388762,87.1384356 C991.659512,91.3209623 984.657649,96.7236987 978.652939,103.140786 C978.415651,103.455063 978.330155,103.857682 978.419324,104.240076 C978.508601,104.632172 978.765885,104.960949 979.147807,105.153771 C979.571322,105.398107 980.051352,105.473925 980.504601,105.395662 C980.957876,105.317393 981.384326,105.085033 981.717833,104.693945 C987.430893,98.6417081 994.082096,93.5468617 1002.05379,89.7511814 C1006.67953,96.0518085 1010.37839,102.986365 1013.03042,110.338887 C1013.20564,110.780375 1013.53249,111.118999 1013.92961,111.31621 C1014.32747,111.513791 1014.79585,111.569484 1015.30876,111.43116 C1015.7193,111.366901 1016.08519,111.131255 1016.31365,110.783199 C1016.54029,110.440609 1016.61325,110.022407 1016.52083,109.626135 C1013.76805,101.983176 1009.93104,94.7792023 1005.13115,88.2274269 C1005.02129,88.0774687 1004.91095,87.9278884 1004.80014,87.7786882 C1004.96129,87.6828886 1005.12463,87.5891563 1005.28866,87.4965411 C1008.94018,85.434847 1012.88934,83.9514917 1017.06544,83.090477 C1017.4867,83.061546 1017.87854,82.8583479 1018.14959,82.5330861 C1018.41266,82.2174015 1018.53734,81.80957 1018.49751,81.4009645 C1018.37319,80.9651903 1018.09441,80.6112988 1017.7352,80.3856521 C1017.36681,80.1542391 1016.91383,80.0577039 1016.45617,80.1462528 C1011.84327,81.0816088 1007.40095,82.7247396 1002.64691,84.8855507 C1000.94123,82.6904936 999.211983,80.6283021 997.465515,78.780517 C994.654965,75.5352269 991.222611,72.883593 987.374654,70.980193 Z" id="Shape"></path>
            <path d="M1164.30644,18.9360203 C1173.64069,17.1750508 1186.83605,18.3556996 1197.55444,26.1358768 C1205.43404,31.855456 1211.98689,41.1394603 1214.66476,55.465127 C1216.59473,65.7917803 1215.63505,75.0249821 1214.58714,85.0416163 C1213.24056,97.9130987 1211.75337,112.088661 1216.20708,131.617466 C1219.04252,144.046453 1215.39663,155.509486 1208.57461,162.674309 C1205.00384,166.424508 1200.56236,168.999621 1195.71806,169.934711 C1191.2069,170.805495 1186.34386,170.256578 1181.50252,167.899424 C1178.39727,166.652909 1175.54921,164.839697 1173.10573,162.549238 C1168.75973,154.903584 1165.66583,146.778179 1163.8332,138.325362 C1158.04338,114.116996 1157.85948,82.6577349 1170.09572,64.5478636 C1170.28099,64.2481323 1170.33242,63.9021731 1170.26517,63.5810558 C1170.1969,63.2550608 1170.00637,62.9546761 1169.70949,62.7541476 C1169.41286,62.5537981 1169.06334,62.4896658 1168.73572,62.5481805 C1168.40867,62.6065931 1168.10341,62.7872187 1167.89219,63.0801786 C1155.31771,81.7200792 1155.31681,114.072458 1161.27577,138.961524 C1163.01849,146.745509 1165.73362,154.279853 1169.35457,161.386245 C1165.93621,166.04842 1161.37227,168.727445 1156.45949,169.782469 C1151.55214,170.836328 1146.29671,170.269772 1141.54484,167.899888 C1137.71557,166.388735 1134.2968,163.997607 1131.56202,160.920062 C1129.00707,157.048054 1126.9322,152.960944 1125.34001,148.686827 C1117.17829,127.899544 1112.68873,93.532483 1125.10449,65.4187598 C1125.25275,65.084085 1125.25106,64.7212454 1125.12869,64.4049629 C1125.00607,64.0880352 1124.76235,63.8178629 1124.42702,63.669309 C1124.09235,63.5210458 1123.72951,63.5227401 1123.41322,63.6451111 C1123.0963,63.7677317 1122.82612,64.0114477 1122.67788,64.3460681 C1109.96961,93.1532323 1114.52622,128.359296 1122.8711,149.655773 C1124.33247,153.453923 1126.13546,157.112108 1128.25873,160.585249 C1125.17453,164.419289 1121.35449,166.632541 1117.23756,167.697534 C1113.12103,168.762424 1108.70767,168.679278 1104.49772,167.318312 C1095.28547,163.303638 1086.718,150.500333 1081.83996,131.692243 C1077.61828,115.414849 1076.14618,94.6508314 1079.40074,71.3237069 C1081.6183,55.5059063 1086.91174,44.0709174 1093.88727,35.9337364 C1102.36655,26.0423724 1113.33835,21.0138437 1124.35451,18.9352654 C1133.70252,17.2521902 1143.3407,18.5706372 1151.88831,22.6986282 C1155.87415,20.9832411 1160.04014,19.7220394 1164.30644,18.9360203 Z" id="Path"></path>
            <path d="M1310.42027,25.4316703 C1323.91433,37.0820139 1331.9047,53.8288093 1332.46838,71.623475 C1332.31899,72.0440138 1332.26468,72.228017 1332.25185,72.4283737 C1330.80384,90.0289352 1320.46745,105.67227 1304.84609,113.907282 C1297.5072,118.282003 1289.26394,120.465152 1281.02278,120.457635 C1272.77296,120.45011 1264.52525,118.247313 1257.18899,113.850149 C1256.86674,113.646006 1256.5047,113.592856 1256.17117,113.667183 C1255.83853,113.741313 1255.53434,113.942318 1255.33642,114.254448 C1255.13849,114.564357 1255.08565,114.925463 1255.15952,115.258359 C1255.23349,115.591665 1255.43446,115.896866 1255.74606,116.094901 C1263.484,120.754459 1272.18865,123.099736 1280.90104,123.128375 C1289.61871,123.15703 1298.34412,120.866241 1306.11655,116.253649 C1317.28187,110.193685 1326.07098,100.568341 1331.08148,88.9150918 C1334.55784,89.8239151 1339.6701,92.7898288 1342.50972,99.4248862 C1344.31531,103.643837 1345.20579,109.358521 1343.96295,117.064307 C1341.05105,135.138551 1333.72888,148.436585 1323.06755,157.170415 C1311.87086,166.342808 1296.97857,170.488882 1279.58639,169.801487 C1269.74968,169.412942 1259.17576,165.04954 1249.98509,158.245069 C1240.81792,151.458 1233.03034,142.246712 1228.71981,132.164329 C1214.96125,99.9993433 1219.46339,69.1296834 1235.60936,45.08254 C1245.10861,30.9346754 1258.19239,21.2404771 1271.88957,17.628724 C1285.02811,14.1642744 1298.73521,16.2851427 1310.42027,25.4316703 Z M1284.70817,63.4851389 C1284.39279,63.2997255 1284.03132,63.2598751 1283.70241,63.3453245 C1283.37327,63.4308304 1283.07666,63.6417998 1282.89081,63.9579129 C1282.71194,64.2600953 1282.66173,64.6197901 1282.74993,64.9570174 C1282.83847,65.2972921 1283.05622,65.5890435 1283.35795,65.7659221 C1287.62231,68.2892376 1289.90178,72.1726559 1290.72673,76.437156 C1291.70191,81.4782103 1290.63239,87.0547782 1288.4129,91.5004552 C1288.2618,91.8259449 1288.25401,92.1813584 1288.36378,92.4956627 C1288.47375,92.8105355 1288.70167,93.0841855 1289.02216,93.2448622 C1289.34275,93.4051605 1289.69854,93.4234089 1290.01638,93.3225772 C1290.33011,93.2230492 1290.60692,93.0074834 1290.77671,92.6980697 C1293.31019,87.6329457 1294.41941,81.3052938 1293.21708,75.570382 C1292.20523,70.7439904 1289.54863,66.3390021 1284.70817,63.4851389 Z" id="Shape"></path>
            <path d="M1383.47408,29.4776686 C1391.501,19.7222386 1402.8496,15.4246053 1414.7109,16.8817176 C1426.52705,18.3332848 1438.86801,25.5093865 1448.91289,38.751871 C1454.88985,46.6313211 1457.77801,54.6502042 1458.38991,62.3032017 C1459.09145,71.0772471 1456.80004,79.3747525 1452.71621,86.4398504 C1447.84625,94.8649772 1440.4271,101.533923 1432.51217,105.169065 C1424.79776,108.712113 1416.61926,109.369761 1409.83854,106.030648 C1404.29692,102.912384 1399.49257,98.683223 1395.71048,93.6082119 C1391.33793,87.0180501 1388.56698,79.5306314 1387.60065,71.7028933 C1387.56178,71.3453339 1387.38227,71.0373385 1387.12313,70.8285273 C1386.86451,70.620137 1386.5266,70.5106075 1386.17044,70.5494144 C1385.81285,70.5882827 1385.50483,70.7678442 1385.29605,71.0272602 C1385.08756,71.2863081 1384.97814,71.6249107 1385.01793,71.9918237 C1386.24044,85.7609271 1393.52107,98.2767709 1404.88773,106.148539 C1405.95004,108.467397 1406.6013,115.817509 1407.03542,123.801691 L1407.0855,124.743667 L1407.10981,125.216351 L1407.16584,126.34363 C1407.52184,133.675348 1407.7246,141.133804 1407.83542,145.21057 C1407.86955,146.466238 1407.89493,147.400377 1407.91336,147.909603 C1408.21949,156.178196 1405.23194,162.964344 1400.49268,167.625246 C1395.36782,172.665362 1388.18812,175.222144 1380.87597,174.474399 C1374.6338,173.836069 1368.29065,170.790767 1363.0566,164.810233 C1358.55429,159.665803 1354.86944,152.341141 1352.79572,142.495903 C1345.47076,107.715551 1345.82326,66.5666675 1353.03067,38.9921475 C1356.46695,25.8437077 1362.87643,19.5709538 1368.85357,17.9192234 C1372.93625,16.791008 1376.84614,17.7964019 1379.59496,20.2825008 C1381.93168,22.3958835 1383.43781,25.5883524 1383.47408,29.4776686 Z" id="Path"></path>
            <path d="M1487.5394,29.3103654 C1498.88787,22.8780045 1513.69539,18.9707673 1531.10287,19.7093354 C1540.23496,20.0975873 1548.25784,23.6428846 1553.60418,29.7201203 C1558.59699,35.3955122 1561.26674,43.2849573 1560.30216,52.9085366 C1559.40607,59.0180949 1557.68932,64.955635 1555.19488,70.5777613 C1552.8681,75.5191462 1549.84431,80.0886 1546.22059,84.1480271 C1543.38794,87.4262673 1539.61026,89.7472611 1535.40657,90.7951242 C1530.54722,91.6102809 1525.59865,90.5602621 1521.51904,87.8666904 C1516.91803,84.8359237 1513.4481,80.3669239 1511.65226,75.1573012 C1508.54047,67.6043077 1507.83462,59.2747098 1509.6336,51.3050181 C1509.72555,50.9480005 1509.67098,50.6015946 1509.51,50.3148858 C1509.3487,50.0276043 1509.08059,49.8001969 1508.74105,49.6965912 C1508.40347,49.5927211 1508.0555,49.6311238 1507.76222,49.7788506 C1507.4751,49.9234791 1507.24053,50.1727511 1507.11872,50.4969199 C1505.15096,59.0572662 1505.87858,68.0189466 1509.20274,76.1512386 C1511.2352,81.933119 1515.11096,86.8605519 1520.22914,90.1850235 C1524.86654,93.2065721 1530.47706,94.3542564 1535.92627,93.3947624 C1540.22551,92.3730577 1544.13924,90.1317384 1547.19452,86.9363118 C1552.09291,88.9089717 1555.94527,91.8449521 1559.09451,95.4673266 C1567.12397,104.839061 1569.90332,117.622016 1566.48479,129.485294 C1561.85201,147.773386 1552.62212,161.826547 1540.96869,167.44353 C1528.65484,173.379365 1510.31033,176.409928 1493.6005,171.204261 C1480.88902,167.244213 1469.11747,158.528497 1461.65642,142.706572 C1458.81301,136.679324 1458.0111,129.318991 1458.99946,122.429209 C1459.99152,115.513686 1462.78799,109.080558 1467.09871,104.930305 C1470.71212,102.446013 1474.83942,100.98719 1479.1281,100.650134 C1487.84313,99.7504779 1498.48235,102.27828 1508.1599,110.215082 C1515.89963,116.562632 1523.02958,126.376444 1528.04516,140.681672 C1528.16573,141.026903 1528.41517,141.290546 1528.72073,141.437518 C1529.02613,141.58441 1529.38763,141.614753 1529.7341,141.492883 C1530.07977,141.372462 1530.34324,141.123525 1530.49029,140.818447 C1530.63775,140.512508 1530.66822,140.150206 1530.54763,139.80493 C1525.28132,124.775927 1517.74909,114.510962 1509.54758,107.894721 C1499.29579,99.6245044 1488.00675,97.0649141 1478.8571,98.0128736 C1478.42486,98.0601122 1477.99498,98.1144423 1477.57455,98.1734916 C1471.25197,93.2985653 1466.9422,87.0366668 1464.54919,80.1118409 C1462.15616,73.1869831 1461.6799,65.5991926 1463.40863,58.1708661 C1466.0914,47.345905 1474.54963,36.6730182 1487.5394,29.3103654 Z" id="Path"></path>
        </g>
    </g>
</svg>