<?xml version="1.0" encoding="UTF-8"?>
<svg width="598.812191px" height="152.94082px" viewBox="0 0 598.812191 152.94082" version="1.1" xmlns="http://www.w3.org/2000/svg" xmlns:xlink="http://www.w3.org/1999/xlink">
    <title>Sign Up</title>
    <g id="Page-1" stroke="none" stroke-width="1" fill="none" fill-rule="evenodd">
        <g id="Apple-TV-4K" transform="translate(-1533.751993, -6491.084426)" fill="#FFFFFF" fill-rule="nonzero">
            <g id="Sign-Up" transform="translate(1533.751993, 6491.084426)">
                <path d="M7.52783286,35.3507731 C4.92967148,47.3451736 5.00299137,57.8675339 15.1098703,67.2130151 C17.5237896,69.3806549 20.1839885,71.2587759 23.0359482,72.807897 C31.5598675,76.661897 40.5387464,79.4142168 49.7582652,80.9990555 C50.4181441,81.102456 50.963343,81.5668163 51.1701441,82.2003753 C51.3337032,82.7906952 51.0404237,83.4110958 50.4801845,83.6592572 C42.3003055,87.6147759 37.4781067,94.4297759 41.5671067,103.940695 C41.725026,104.294136 41.7099856,104.702096 41.5276254,105.044257 C41.3471441,105.386419 41.0181441,105.627058 40.6365044,105.696617 C39.7867436,105.897779 38.9087839,105.484179 38.5252652,104.698341 C34.3723459,95.0351419 38.0270663,87.7200612 45.3835072,82.9730612 C37.1303084,81.331822 29.102709,78.7092226 21.4717896,75.1635425 C20.2554294,74.4735828 18.973268,73.7084214 17.6929885,72.8549027 C3.88250723,74.1652629 -3.91009219,97.3494243 1.99310666,111.154263 C15.7359078,143.243983 67.2723487,140.153263 82.4608675,125.216663 C103.304427,104.719024 101.932026,72.3698623 79.4622652,60.9845828 C78.5279049,61.8869834 77.5258646,62.7160641 76.4655447,63.4680641 C70.2126657,68.1267038 61.6643055,68.2037845 55.3268243,63.6635857 C50.8430231,60.6367845 47.530464,56.1680237 45.9362248,50.9999027 C43.2873055,43.707384 42.9357464,35.7794243 44.9266657,28.2801044 C45.3139453,27.5581851 46.1655851,27.2197845 46.942026,27.4811044 C47.7184669,27.7405453 48.1941067,28.524505 48.066268,29.3329056 C46.235147,36.2945453 46.5754265,43.6491044 49.0438675,50.4114646 C50.3673862,54.8614243 53.1723459,58.7267038 56.9906254,61.3662226 C62.1775447,65.069822 69.1636254,64.9927413 74.2659453,61.1744618 C79.6013862,56.8279027 83.8483055,51.2950641 86.6645447,45.0177442 C88.7870634,40.4079834 90.3098646,35.5444243 91.1953459,30.547384 C93.5321845,13.2250641 82.3349049,2.34362315 67.2385044,1.69126292 C35.0717032,0.307582808 11.4457436,17.2839834 7.52782425,35.3507845 L7.52783286,35.3507731 Z" id="Path"></path>
                <path d="M140.189323,49.0804128 C128.228764,44.8992918 103.696643,42.4233321 101.201882,73.3718912 C98.9872425,100.90073 105.461963,129.762491 115.805724,132.826891 C120.819683,134.731332 132.060202,134.543332 142.112562,130.025692 C154.763081,124.338692 141.482761,93.1100123 145.838721,88.417531 C155.509441,75.3158105 149.980361,52.509531 140.18932,49.08041 L140.189323,49.0804128 Z M133.513441,1.12913042 C117.693242,-3.98259004 98.7766834,9.13040996 101.137963,22.9991708 C102.623162,31.7186117 111.594522,37.9620929 118.368162,41.2182543 C144.479482,53.7634935 159.925562,9.6605742 133.513441,1.12913328 L133.513441,1.12913042 Z" id="Shape"></path>
                <path d="M236.971342,27.0392947 C234.311143,19.7035339 227.909743,14.3624532 220.214904,13.0596145 C206.823665,10.8750555 193.086504,13.3209344 181.270702,19.9930555 C168.719823,26.9810151 159.671383,38.9077356 156.321221,52.8780151 C155.172541,57.4050555 152.8921,77.9872947 163.6081,89.8106145 C166.497659,87.6429748 169.892939,86.2480151 173.472457,85.759214 C180.394619,85.242214 187.230299,87.5470929 192.428498,92.1474532 C202.078538,97.8946145 210.719019,95.1422947 215.74614,89.3368537 C216.265019,88.7371333 217.171181,88.6713321 217.769019,89.1902111 C218.36874,89.7090901 218.434541,90.6152514 217.915662,91.2130901 C213.116022,96.9940901 205.421184,99.4982514 198.138063,97.6483321 C202.189463,102.032494 205.122264,107.330332 206.688305,113.090652 C206.838705,113.868972 206.327345,114.622851 205.547146,114.77137 C204.766947,114.92177 204.014947,114.41041 203.864547,113.63209 C202.012746,107.26077 198.459547,101.51737 193.584708,97.018531 C192.70487,96.1612514 191.77991,95.3340526 190.82487,94.5576117 C190.057829,94.0913725 189.285149,93.5781333 188.508708,93.021652 C188.339509,92.8975713 188.19663,92.7377702 188.095112,92.5516492 C183.96663,89.5662082 178.898149,88.1693696 173.822149,88.6186895 C167.667028,89.4007702 161.399109,93.7003293 155.650068,103.399249 C154.097189,108.762888 154.507028,114.504407 156.806267,119.591687 C164.143907,133.855246 173.502547,141.623407 183.084907,144.479128 C192.719907,147.692047 203.251668,146.812208 212.219267,142.046407 C219.664068,138.058926 225.988388,132.270407 230.615068,125.209128 C239.774429,110.381568 244.23191,93.1288077 243.40095,75.7200065 C243.368991,75.1127673 245.19259,47.884727 236.971351,27.0392861 L236.971342,27.0392947 Z M198.786671,73.3418048 C198.570472,73.6914849 198.201991,73.9227241 197.79027,73.9640843 C197.380431,74.0054446 196.974351,73.855044 196.690472,73.5542428 C192.840233,69.673923 190.445112,64.5866434 189.90931,59.1478048 C189.036991,53.927044 190.503391,48.5878451 193.91559,44.5439662 C194.210751,44.2488048 194.624351,44.104044 195.03795,44.149165 C195.453431,44.196165 195.823792,44.4292861 196.04563,44.7846059 C196.62091,45.5178048 196.603991,46.5536838 196.002391,47.2662025 C193.31023,50.5129633 192.172829,54.773044 192.890991,58.9297241 C193.321509,63.421044 195.287991,67.6284849 198.457671,70.8414042 C199.136351,71.4975253 199.271711,72.5334042 198.786671,73.3418048 Z" id="Shape"></path>
                <path d="M303.454796,131.689494 C320.669957,139.211372 338.214119,122.894854 333.299799,103.594773 C326.349438,76.2858941 335.8096,62.2366549 331.936799,43.6772947 C326.4566,17.3873753 302.311761,12.8810151 288.256882,15.257335 C270.786044,18.2108163 253.416724,28.8064964 249.156643,56.1341765 C243.020323,95.3866952 255.960363,125.385857 270.868764,131.215736 C277.608565,133.849615 286.955925,129.783174 290.386925,124.960975 C275.266087,99.4268134 279.857046,70.5594128 286.352447,54.2015339 C283.978006,53.9966145 281.652447,53.3987759 279.469767,52.4380958 C276.965606,51.3890555 274.797966,49.6726145 273.201845,47.4748941 C272.795764,46.8638941 272.908565,46.0460929 273.465046,45.5666924 C273.728245,45.3561333 274.070407,45.2677731 274.403167,45.3260526 C274.735928,45.3843321 275.027329,45.5836117 275.204049,45.8712514 C277.164888,48.3923321 279.937888,50.1557731 283.051167,50.8645339 C290.706528,52.6072947 298.737888,50.7235339 304.821568,45.762214 C305.094167,45.5629344 305.438208,45.4914935 305.769087,45.5648134 C306.098087,45.6381333 306.380087,45.8486924 306.543646,46.1457327 C306.919646,46.7755339 306.767366,47.5858134 306.190205,48.0370123 C301.253326,51.8421333 295.263646,54.0304532 289.035205,54.3049344 C282.500326,70.0442947 277.486366,98.964335 292.945606,124.284174 C295.682885,127.692615 299.324444,130.260695 303.454804,131.689496 L303.454796,131.689494 Z" id="Path"></path>
                <path d="M451.320516,16.1804128 C433.466156,43.4140929 439.256557,74.5299719 446.804756,91.4462111 C453.926197,91.7206924 460.814516,94.0650526 466.623715,98.191652 C467.285476,98.6503725 467.465957,99.5508912 467.027917,100.227692 C466.822998,100.549174 466.495877,100.774773 466.119877,100.853733 C465.745756,100.930813 465.356594,100.855615 465.038874,100.641295 C457.840355,95.2720151 448.675355,93.2698163 439.895756,95.1498163 C436.355715,95.8736174 433.161594,97.7667788 430.824756,100.522859 C430.602917,100.833058 430.264516,101.041738 429.886637,101.098139 C429.508758,101.156419 429.123358,101.058658 428.820678,100.827419 C428.181479,100.336738 428.046119,99.4286981 428.516119,98.7725771 C430.405519,96.3755771 432.909681,94.5331765 435.759761,93.4390151 C438.294001,92.3974964 440.974879,91.7564157 443.706519,91.538335 C436.203439,73.9396549 430.901839,42.8876952 448.36892,15.4152543 C444.413401,10.2433753 433.60528,5.84981627 425.822081,8.68485661 C408.590001,14.9565367 393.651519,47.2323753 400.739119,89.4609344 C405.674119,118.860375 425.731839,130.258816 445.906119,133.434136 C462.13992,135.990937 490.024081,131.140537 496.367202,102.863456 C500.837842,82.888456 489.911283,67.7807759 497.940764,38.4020151 C500.591565,28.979456 497.591084,18.8725771 490.230885,12.4185367 C482.870686,5.96637535 472.457366,4.31573558 463.463447,8.17537535 C458.759686,9.68313615 454.559767,12.4523753 451.320528,16.1804157 L451.320516,16.1804128 Z" id="Path"></path>
                <path d="M596.75014,57.9070151 C592.256941,39.652214 581.537181,22.8882543 564.045662,15.8890151 C552.265581,11.1739748 520.640221,14.977214 509.279382,40.2312543 C496.999221,67.5495339 505.0475,100.714615 511.807982,132.535494 C513.659783,144.114413 523.542944,152.702251 535.266624,152.922211 C545.565264,153.311372 554.151224,147.628133 553.728224,132.907733 C543.117503,131.888773 533.668624,125.767494 528.402745,116.499093 C527.989146,115.822292 528.201587,114.936811 528.878388,114.523211 C529.555189,114.10773 530.44067,114.32205 530.85427,114.998851 C536.197229,124.24845 545.965711,130.05577 556.644111,130.334009 C563.844512,130.121568 570.828711,127.816689 576.743192,123.703249 C594.255391,111.588528 603.11959,83.7758077 596.750149,57.9070065 L596.75014,57.9070151 Z M554.967149,98.3890469 C554.346748,98.8816059 553.444348,98.7763264 552.953668,98.1559258 C552.461108,97.5336463 552.566388,96.6331275 553.186789,96.1405685 C563.92159,87.6580094 563.78059,73.5974906 558.509071,63.2443293 C555.031071,56.4142889 549.310232,51.1390094 542.863714,50.2704503 C542.341074,50.2178105 541.889875,49.8850497 541.684956,49.4018883 C541.480036,48.918727 541.555235,48.3622457 541.880474,47.9505253 C542.205714,47.5406866 542.730232,47.3376463 543.247232,47.4260065 C550.549152,48.4054878 557.132912,54.2203264 561.067751,61.9452457 C566.914552,73.4245253 566.873192,88.9852861 554.967152,98.3890469 L554.967149,98.3890469 Z" id="Shape"></path>
            </g>
        </g>
    </g>
</svg>