<svg width="2833" height="1122" viewBox="0 0 2833 1122" fill="none" xmlns="http://www.w3.org/2000/svg">
<path d="M132.281 903.758H237.814C253.863 903.758 267.399 898.57 278.423 888.195C289.608 877.82 295.201 863.068 295.201 843.939C295.201 829.836 289.365 817.191 277.693 806.006C266.021 794.658 252.729 788.984 237.814 788.984H87.5391V1104.12H70.0312V771.477H237.814C257.592 771.477 275.019 778.853 290.095 793.604C305.171 808.194 312.709 824.973 312.709 843.939C312.709 867.283 305.414 886.007 290.824 900.11C276.234 914.214 258.564 921.266 237.814 921.266H132.281V903.758ZM132.281 938.773H237.814C263.104 938.773 284.826 929.938 302.982 912.269C321.139 894.437 330.217 871.66 330.217 843.939C330.217 820.109 320.896 799.197 302.253 781.203C283.772 763.047 262.293 753.969 237.814 753.969H52.5234V1104.12H35.0156V736.461H237.814C257.105 736.461 275.181 741.405 292.04 751.294C309.062 761.183 322.598 774.476 332.648 791.173C342.699 807.708 347.725 825.297 347.725 843.939C347.725 875.875 336.863 902.623 315.141 924.184C293.58 945.582 267.805 956.281 237.814 956.281H132.281V938.773ZM132.281 973.789H237.814C260.51 973.789 281.584 968.196 301.037 957.011C320.49 945.825 336.053 930.263 347.725 910.323C359.396 890.222 365.232 868.094 365.232 843.939C365.232 822.055 359.396 801.548 347.725 782.419C336.215 763.128 320.652 747.728 301.037 736.218C281.422 724.708 260.348 718.953 237.814 718.953H17.5078V1104.12H0V701.445H237.814C263.266 701.445 287.177 708.011 309.548 721.142C331.919 734.11 349.67 751.618 362.801 773.665C376.094 795.55 382.74 818.975 382.74 843.939C382.74 872.795 376.499 898.165 364.017 920.05C351.696 941.935 334.918 959.037 313.682 971.357L358.91 1104.12H340.43L297.146 979.625C290.662 982.219 285.718 984.002 282.313 984.975L322.922 1104.12H304.441L264.806 989.108C263.347 989.433 258.159 990 249.243 990.811L286.934 1104.12H268.453L231.249 991.297H215.443L250.945 1104.12H232.465L196.72 991.297H132.281V973.789ZM122.555 1104.12H105.047V806.492H237.814C248.676 806.492 257.997 810.221 265.778 817.678C273.722 824.973 277.693 833.727 277.693 843.939C277.693 872.146 264.4 886.25 237.814 886.25H132.281V868.742H237.814C244.785 868.742 250.216 866.959 254.106 863.393C258.159 859.664 260.186 853.18 260.186 843.939C260.186 838.266 257.997 833.564 253.62 829.836C249.405 825.945 244.137 824 237.814 824H122.555V1104.12Z" fill="black"/>
<path d="M507.483 834.699C488.679 853.504 479.276 876.199 479.276 902.785C479.276 929.371 488.679 952.066 507.483 970.871C526.288 989.676 548.983 999.078 575.569 999.078C602.155 999.078 624.851 989.676 643.655 970.871C662.46 952.066 671.862 929.371 671.862 902.785C671.862 876.199 662.46 853.504 643.655 834.699C624.851 815.895 602.155 806.492 575.569 806.492C548.983 806.492 526.288 815.895 507.483 834.699ZM470.766 947.041C464.768 932.938 461.769 918.186 461.769 902.785C461.769 887.385 464.768 872.714 470.766 858.772C476.764 844.669 484.869 832.511 495.082 822.298C505.295 812.085 517.372 803.979 531.313 797.981C545.417 791.983 560.169 788.984 575.569 788.984C590.97 788.984 605.641 791.983 619.582 797.981C633.686 803.979 645.844 812.085 656.057 822.298C666.27 832.511 674.375 844.669 680.373 858.772C686.371 872.714 689.37 887.385 689.37 902.785C689.37 918.186 686.371 932.938 680.373 947.041C674.375 960.982 666.27 973.06 656.057 983.272C645.844 993.485 633.686 1001.59 619.582 1007.59C605.641 1013.59 590.97 1016.59 575.569 1016.59C560.169 1016.59 545.417 1013.59 531.313 1007.59C517.372 1001.59 505.295 993.485 495.082 983.272C484.869 973.06 476.764 960.982 470.766 947.041ZM461.769 836.888C450.097 856.989 444.261 878.955 444.261 902.785C444.261 926.615 450.097 948.581 461.769 968.683C473.603 988.784 489.57 1004.75 509.672 1016.59C529.773 1028.26 551.739 1034.09 575.569 1034.09C599.399 1034.09 621.365 1028.26 641.467 1016.59C661.568 1004.75 677.455 988.784 689.127 968.683C700.961 948.581 706.878 926.615 706.878 902.785C706.878 878.955 700.961 856.989 689.127 836.888C677.455 816.786 661.568 800.899 641.467 789.228C621.365 777.394 599.399 771.477 575.569 771.477C551.739 771.477 529.773 777.394 509.672 789.228C489.57 800.899 473.603 816.786 461.769 836.888ZM446.692 977.437C433.399 954.579 426.753 929.695 426.753 902.785C426.753 875.875 433.399 850.991 446.692 828.134C459.985 805.276 478.061 787.201 500.918 773.908C523.775 760.615 548.659 753.969 575.569 753.969C602.479 753.969 627.363 760.615 650.221 773.908C673.078 787.201 691.153 805.276 704.446 828.134C717.739 850.991 724.386 875.875 724.386 902.785C724.386 929.695 717.739 954.579 704.446 977.437C691.153 1000.29 673.078 1018.37 650.221 1031.66C627.363 1044.96 602.479 1051.6 575.569 1051.6C548.659 1051.6 523.775 1044.96 500.918 1031.66C478.061 1018.37 459.985 1000.29 446.692 977.437ZM422.376 838.104C413.622 858.691 409.245 880.252 409.245 902.785C409.245 925.318 413.622 946.879 422.376 967.467C431.13 988.055 442.883 1005.81 457.635 1020.72C472.549 1035.47 490.3 1047.22 510.888 1055.98C531.476 1064.73 553.036 1069.11 575.569 1069.11C598.103 1069.11 619.663 1064.73 640.251 1055.98C660.839 1047.22 678.509 1035.47 693.261 1020.72C708.175 1005.81 720.009 988.055 728.763 967.467C737.517 946.879 741.894 925.318 741.894 902.785C741.894 880.252 737.517 858.691 728.763 838.104C720.009 817.516 708.175 799.846 693.261 785.094C678.509 770.18 660.839 758.346 640.251 749.592C619.663 740.838 598.103 736.461 575.569 736.461C553.036 736.461 531.476 740.838 510.888 749.592C490.3 758.346 472.549 770.18 457.635 785.094C442.883 799.846 431.13 817.516 422.376 838.104ZM416.297 994.944C399.924 966.737 391.737 936.018 391.737 902.785C391.737 869.553 399.924 838.833 416.297 810.626C432.832 782.419 455.203 760.129 483.41 743.756C511.617 727.221 542.337 718.953 575.569 718.953C608.802 718.953 639.521 727.221 667.729 743.756C695.936 760.129 718.226 782.419 734.599 810.626C751.134 838.833 759.401 869.553 759.401 902.785C759.401 936.018 751.134 966.737 734.599 994.944C718.226 1023.15 695.936 1045.52 667.729 1062.06C639.521 1078.43 608.802 1086.62 575.569 1086.62C542.337 1086.62 511.617 1078.43 483.41 1062.06C455.203 1045.52 432.832 1023.15 416.297 994.944ZM390.035 824.729C379.498 849.532 374.229 875.551 374.229 902.785C374.229 930.02 379.498 956.119 390.035 981.084C400.734 1005.89 415.081 1027.29 433.075 1045.28C451.069 1063.27 472.468 1077.62 497.271 1088.32C522.235 1098.86 548.335 1104.12 575.569 1104.12C602.804 1104.12 628.822 1098.86 653.625 1088.32C678.59 1077.62 700.069 1063.27 718.063 1045.28C736.058 1027.29 750.323 1005.89 760.86 981.084C771.56 956.119 776.909 930.02 776.909 902.785C776.909 875.551 771.56 849.532 760.86 824.729C750.323 799.765 736.058 778.285 718.063 760.291C700.069 742.297 678.59 728.031 653.625 717.494C628.822 706.795 602.804 701.445 575.569 701.445C548.335 701.445 522.235 706.795 497.271 717.494C472.468 728.031 451.069 742.297 433.075 760.291C415.081 778.285 400.734 799.765 390.035 824.729ZM373.986 987.893C362.477 960.82 356.722 932.451 356.722 902.785C356.722 873.119 362.477 844.831 373.986 817.921C385.658 790.849 401.221 767.586 420.674 748.133C440.289 728.518 463.552 712.955 490.462 701.445C517.534 689.773 545.903 683.938 575.569 683.938C605.235 683.938 633.523 689.773 660.434 701.445C687.506 712.955 710.769 728.518 730.222 748.133C749.837 767.586 765.399 790.849 776.909 817.921C788.581 844.831 794.417 873.119 794.417 902.785C794.417 932.451 788.581 960.82 776.909 987.893C765.399 1014.8 749.837 1038.07 730.222 1057.68C710.769 1077.13 687.506 1092.62 660.434 1104.12C633.523 1115.8 605.235 1121.63 575.569 1121.63C545.903 1121.63 517.534 1115.8 490.462 1104.12C463.552 1092.62 440.289 1077.13 420.674 1057.68C401.221 1038.07 385.658 1014.8 373.986 987.893Z" fill="black"/>
<path d="M972.413 834.699C953.608 853.504 944.206 876.199 944.206 902.785C944.206 929.371 953.608 952.066 972.413 970.871C991.218 989.676 1013.91 999.078 1040.5 999.078C1067.08 999.078 1089.78 989.676 1108.58 970.871C1127.39 952.066 1136.79 929.371 1136.79 902.785C1136.79 876.199 1127.39 853.504 1108.58 834.699C1089.78 815.895 1067.08 806.492 1040.5 806.492C1013.91 806.492 991.218 815.895 972.413 834.699ZM935.695 947.041C929.697 932.938 926.698 918.186 926.698 902.785C926.698 887.385 929.697 872.714 935.695 858.772C941.693 844.669 949.799 832.511 960.012 822.298C970.225 812.085 982.302 803.979 996.243 797.981C1010.35 791.983 1025.1 788.984 1040.5 788.984C1055.9 788.984 1070.57 791.983 1084.51 797.981C1098.62 803.979 1110.77 812.085 1120.99 822.298C1131.2 832.511 1139.3 844.669 1145.3 858.772C1151.3 872.714 1154.3 887.385 1154.3 902.785C1154.3 918.186 1151.3 932.938 1145.3 947.041C1139.3 960.982 1131.2 973.06 1120.99 983.272C1110.77 993.485 1098.62 1001.59 1084.51 1007.59C1070.57 1013.59 1055.9 1016.59 1040.5 1016.59C1025.1 1016.59 1010.35 1013.59 996.243 1007.59C982.302 1001.59 970.225 993.485 960.012 983.272C949.799 973.06 941.693 960.982 935.695 947.041ZM926.698 836.888C915.026 856.989 909.19 878.955 909.19 902.785C909.19 926.615 915.026 948.581 926.698 968.683C938.532 988.784 954.5 1004.75 974.602 1016.59C994.703 1028.26 1016.67 1034.09 1040.5 1034.09C1064.33 1034.09 1086.29 1028.26 1106.4 1016.59C1126.5 1004.75 1142.38 988.784 1154.06 968.683C1165.89 948.581 1171.81 926.615 1171.81 902.785C1171.81 878.955 1165.89 856.989 1154.06 836.888C1142.38 816.786 1126.5 800.899 1106.4 789.228C1086.29 777.394 1064.33 771.477 1040.5 771.477C1016.67 771.477 994.703 777.394 974.602 789.228C954.5 800.899 938.532 816.786 926.698 836.888ZM911.622 977.437C898.329 954.579 891.683 929.695 891.683 902.785C891.683 875.875 898.329 850.991 911.622 828.134C924.915 805.276 942.99 787.201 965.848 773.908C988.705 760.615 1013.59 753.969 1040.5 753.969C1067.41 753.969 1092.29 760.615 1115.15 773.908C1138.01 787.201 1156.08 805.276 1169.38 828.134C1182.67 850.991 1189.32 875.875 1189.32 902.785C1189.32 929.695 1182.67 954.579 1169.38 977.437C1156.08 1000.29 1138.01 1018.37 1115.15 1031.66C1092.29 1044.96 1067.41 1051.6 1040.5 1051.6C1013.59 1051.6 988.705 1044.96 965.848 1031.66C942.99 1018.37 924.915 1000.29 911.622 977.437ZM887.306 838.104C878.552 858.691 874.175 880.252 874.175 902.785C874.175 925.318 878.552 946.879 887.306 967.467C896.06 988.055 907.812 1005.81 922.564 1020.72C937.479 1035.47 955.229 1047.22 975.817 1055.98C996.405 1064.73 1017.97 1069.11 1040.5 1069.11C1063.03 1069.11 1084.59 1064.73 1105.18 1055.98C1125.77 1047.22 1143.44 1035.47 1158.19 1020.72C1173.1 1005.81 1184.94 988.055 1193.69 967.467C1202.45 946.879 1206.82 925.318 1206.82 902.785C1206.82 880.252 1202.45 858.691 1193.69 838.104C1184.94 817.516 1173.1 799.846 1158.19 785.094C1143.44 770.18 1125.77 758.346 1105.18 749.592C1084.59 740.838 1063.03 736.461 1040.5 736.461C1017.97 736.461 996.405 740.838 975.817 749.592C955.229 758.346 937.479 770.18 922.564 785.094C907.812 799.846 896.06 817.516 887.306 838.104ZM881.227 994.944C864.854 966.737 856.667 936.018 856.667 902.785C856.667 869.553 864.854 838.833 881.227 810.626C897.762 782.419 920.133 760.129 948.34 743.756C976.547 727.221 1007.27 718.953 1040.5 718.953C1073.73 718.953 1104.45 727.221 1132.66 743.756C1160.87 760.129 1183.16 782.419 1199.53 810.626C1216.06 838.833 1224.33 869.553 1224.33 902.785C1224.33 936.018 1216.06 966.737 1199.53 994.944C1183.16 1023.15 1160.87 1045.52 1132.66 1062.06C1104.45 1078.43 1073.73 1086.62 1040.5 1086.62C1007.27 1086.62 976.547 1078.43 948.34 1062.06C920.133 1045.52 897.762 1023.15 881.227 994.944ZM854.965 824.729C844.428 849.532 839.159 875.551 839.159 902.785C839.159 930.02 844.428 956.119 854.965 981.084C865.664 1005.89 880.011 1027.29 898.005 1045.28C915.999 1063.27 937.397 1077.62 962.2 1088.32C987.165 1098.86 1013.26 1104.12 1040.5 1104.12C1067.73 1104.12 1093.75 1098.86 1118.55 1088.32C1143.52 1077.62 1165 1063.27 1182.99 1045.28C1200.99 1027.29 1215.25 1005.89 1225.79 981.084C1236.49 956.119 1241.84 930.02 1241.84 902.785C1241.84 875.551 1236.49 849.532 1225.79 824.729C1215.25 799.765 1200.99 778.285 1182.99 760.291C1165 742.297 1143.52 728.031 1118.55 717.494C1093.75 706.795 1067.73 701.445 1040.5 701.445C1013.26 701.445 987.165 706.795 962.2 717.494C937.397 728.031 915.999 742.297 898.005 760.291C880.011 778.285 865.664 799.765 854.965 824.729ZM838.916 987.893C827.406 960.82 821.651 932.451 821.651 902.785C821.651 873.119 827.406 844.831 838.916 817.921C850.588 790.849 866.15 767.586 885.604 748.133C905.219 728.518 928.481 712.955 955.392 701.445C982.464 689.773 1010.83 683.938 1040.5 683.938C1070.17 683.938 1098.45 689.773 1125.36 701.445C1152.44 712.955 1175.7 728.518 1195.15 748.133C1214.77 767.586 1230.33 790.849 1241.84 817.921C1253.51 844.831 1259.35 873.119 1259.35 902.785C1259.35 932.451 1253.51 960.82 1241.84 987.893C1230.33 1014.8 1214.77 1038.07 1195.15 1057.68C1175.7 1077.13 1152.44 1092.62 1125.36 1104.12C1098.45 1115.8 1070.17 1121.63 1040.5 1121.63C1010.83 1121.63 982.464 1115.8 955.392 1104.12C928.481 1092.62 905.219 1077.13 885.604 1057.68C866.15 1038.07 850.588 1014.8 838.916 987.893Z" fill="black"/>
<path d="M1585.43 957.254L1602.94 924.184V1104.12H1585.43V957.254ZM1620.45 890.141L1637.95 857.07V1104.12H1620.45V890.141ZM1655.46 824L1672.97 790.687V1104.12H1655.46V824ZM1538.01 948.986L1528.04 930.749L1648.65 701.445H1668.35L1538.01 948.986ZM1517.83 910.81L1507.62 892.329L1608.77 701.445H1628.71L1517.83 910.81ZM1400.62 926.129L1418.13 959.199V1104.12H1400.62V926.129ZM1365.61 859.502L1383.12 892.572V1104.12H1365.61V859.502ZM1330.59 792.875L1348.1 826.188V1104.12H1330.59V792.875ZM1472.12 999.078H1452.42L1313.09 734.759V1104.12H1295.58V701.445H1315.27L1472.12 999.078ZM1511.75 999.078H1491.81L1335.21 701.445H1355.15L1511.75 999.078ZM1690.48 734.759L1551.14 999.078H1531.2L1374.85 701.445H1394.55L1541.42 980.598L1688.04 701.445H1707.98V1104.12H1690.48V734.759Z" fill="black"/>
<path d="M1841.72 1104.12H1824.22V701.445H1841.72V1104.12ZM1806.71 1104.12H1789.2V701.445H1806.71V1104.12ZM1771.69 1104.12H1754.19V701.445H1771.69V1104.12ZM1876.74 1016.59H2063V1034.09H1876.74V1051.6H2063V1069.11H1876.74V1086.62H2063V1104.12H1859.23V701.445H2063V718.953H1876.74V736.461H2063V753.969H1876.74V771.477H2063V788.984H1876.74V859.016H1972.3V876.523H1876.74V894.031H1972.3V911.539H1876.74V929.047H1972.3V946.555H1876.74V1016.59Z" fill="black"/>
<path d="M2238.57 903.758H2344.1C2360.15 903.758 2373.69 898.57 2384.71 888.195C2395.9 877.82 2401.49 863.068 2401.49 843.939C2401.49 829.836 2395.65 817.191 2383.98 806.006C2372.31 794.658 2359.02 788.984 2344.1 788.984H2193.83V1104.12H2176.32V771.477H2344.1C2363.88 771.477 2381.31 778.853 2396.38 793.604C2411.46 808.194 2419 824.973 2419 843.939C2419 867.283 2411.7 886.007 2397.11 900.11C2382.52 914.214 2364.85 921.266 2344.1 921.266H2238.57V903.758ZM2238.57 938.773H2344.1C2369.39 938.773 2391.11 929.938 2409.27 912.269C2427.43 894.437 2436.5 871.66 2436.5 843.939C2436.5 820.109 2427.18 799.197 2408.54 781.203C2390.06 763.047 2368.58 753.969 2344.1 753.969H2158.81V1104.12H2141.3V736.461H2344.1C2363.39 736.461 2381.47 741.405 2398.33 751.294C2415.35 761.183 2428.88 774.476 2438.94 791.173C2448.99 807.708 2454.01 825.297 2454.01 843.939C2454.01 875.875 2443.15 902.623 2421.43 924.184C2399.87 945.582 2374.09 956.281 2344.1 956.281H2238.57V938.773ZM2238.57 973.789H2344.1C2366.8 973.789 2387.87 968.196 2407.32 957.011C2426.78 945.825 2442.34 930.263 2454.01 910.323C2465.68 890.222 2471.52 868.094 2471.52 843.939C2471.52 822.055 2465.68 801.548 2454.01 782.419C2442.5 763.128 2426.94 747.728 2407.32 736.218C2387.71 724.708 2366.63 718.953 2344.1 718.953H2123.79V1104.12H2106.29V701.445H2344.1C2369.55 701.445 2393.46 708.011 2415.83 721.142C2438.21 734.11 2455.96 751.618 2469.09 773.665C2482.38 795.55 2489.03 818.975 2489.03 843.939C2489.03 872.795 2482.79 898.165 2470.3 920.05C2457.98 941.935 2441.21 959.037 2419.97 971.357L2465.2 1104.12H2446.72L2403.43 979.625C2396.95 982.219 2392 984.002 2388.6 984.975L2429.21 1104.12H2410.73L2371.09 989.108C2369.63 989.433 2364.45 990 2355.53 990.811L2393.22 1104.12H2374.74L2337.54 991.297H2321.73L2357.23 1104.12H2338.75L2303.01 991.297H2238.57V973.789ZM2228.84 1104.12H2211.33V806.492H2344.1C2354.96 806.492 2364.28 810.221 2372.07 817.678C2380.01 824.973 2383.98 833.727 2383.98 843.939C2383.98 872.146 2370.69 886.25 2344.1 886.25H2238.57V868.742H2344.1C2351.07 868.742 2356.5 866.959 2360.39 863.393C2364.45 859.664 2366.47 853.18 2366.47 843.939C2366.47 838.266 2364.28 833.564 2359.91 829.836C2355.69 825.945 2350.42 824 2344.1 824H2228.84V1104.12Z" fill="black"/>
<path d="M2689.15 859.016H2659.73C2647.25 859.016 2638.25 855.854 2632.74 849.532C2627.23 843.048 2624.47 834.537 2624.47 824C2624.47 800.656 2641.9 788.984 2676.75 788.984C2709.5 788.984 2734.14 793.848 2750.67 803.574L2736.57 814.273C2725.22 809.086 2705.28 806.492 2676.75 806.492C2662.81 806.492 2653.41 808.032 2648.54 811.112C2643.84 814.192 2641.49 818.488 2641.49 824C2641.49 829.512 2642.79 833.808 2645.38 836.888C2647.98 839.968 2652.76 841.508 2659.73 841.508H2689.88C2711.77 841.508 2731.46 845.236 2748.97 852.693C2766.64 860.15 2781.15 870.363 2792.5 883.332C2803.84 896.139 2812.52 910.972 2818.51 927.831C2824.51 944.528 2827.51 962.441 2827.51 981.57C2827.51 997.133 2825.32 1011.88 2820.95 1025.83C2816.57 1039.77 2809.92 1052.57 2801.01 1064.25C2792.25 1075.92 2781.63 1086.05 2769.15 1094.64C2756.83 1103.07 2742.08 1109.64 2724.9 1114.34C2707.88 1119.2 2689.39 1121.63 2669.46 1121.63C2638.17 1121.63 2608.83 1116.85 2581.43 1107.29C2554.2 1097.88 2531.5 1084.67 2513.34 1067.65L2527.45 1057.19C2543.98 1072.11 2564.65 1083.7 2589.45 1091.97C2614.42 1100.07 2641.09 1104.12 2669.46 1104.12C2691.66 1104.12 2711.68 1100.96 2729.52 1094.64C2747.51 1088.16 2762.26 1079.32 2773.77 1068.14C2785.44 1056.95 2794.36 1043.98 2800.52 1029.23C2806.84 1014.48 2810 998.592 2810 981.57C2810 959.037 2805.46 938.692 2796.39 920.536C2787.31 902.218 2773.45 887.385 2754.81 876.037C2736.33 864.689 2714.44 859.016 2689.15 859.016ZM2659.73 876.523H2687.45C2720.36 876.523 2746.05 886.574 2764.53 906.676C2783.17 926.777 2792.5 951.742 2792.5 981.57C2792.5 1011.88 2781.72 1037.01 2760.16 1056.95C2738.59 1076.73 2708.36 1086.62 2669.46 1086.62C2643.52 1086.62 2619.28 1083.05 2596.75 1075.92C2574.22 1068.79 2555.49 1058.73 2540.58 1045.77L2554.2 1034.82C2567.49 1045.68 2584.19 1054.11 2604.29 1060.11C2624.55 1066.11 2646.27 1069.11 2669.46 1069.11C2703.66 1069.11 2729.76 1060.92 2747.75 1044.55C2765.91 1028.18 2774.99 1007.18 2774.99 981.57C2774.99 956.281 2767.37 935.369 2752.13 918.834C2737.05 902.299 2715.41 894.031 2687.21 894.031H2659.73C2636.06 894.031 2618.31 887.547 2606.48 874.578C2594.64 861.609 2588.72 844.75 2588.72 824C2588.72 803.25 2596.02 786.391 2610.61 773.422C2625.36 760.453 2647.41 753.969 2676.75 753.969C2697.34 753.969 2716.47 756.4 2734.14 761.264C2751.81 765.965 2766.4 772.773 2777.91 781.689L2764.05 792.389C2743.78 778.447 2714.68 771.477 2676.75 771.477C2652.27 771.477 2634.36 776.34 2623.01 786.066C2611.83 795.631 2606.23 808.275 2606.23 824C2606.23 839.887 2610.37 852.612 2618.63 862.177C2627.06 871.741 2640.76 876.523 2659.73 876.523ZM2659.73 911.539H2686.48C2710.14 911.539 2727.9 918.104 2739.73 931.235C2751.56 944.366 2757.48 961.145 2757.48 981.57C2757.48 1002.32 2750.1 1019.18 2735.35 1032.15C2720.76 1045.12 2698.8 1051.6 2669.46 1051.6C2648.87 1051.6 2629.66 1049.25 2611.83 1044.55C2594.16 1039.69 2579.57 1032.8 2568.06 1023.88L2581.92 1013.18C2602.18 1027.12 2631.36 1034.09 2669.46 1034.09C2693.93 1034.09 2711.77 1029.31 2722.95 1019.75C2734.3 1010.02 2739.97 997.295 2739.97 981.57C2739.97 965.846 2735.76 953.201 2727.33 943.637C2718.9 933.91 2705.2 929.047 2686.23 929.047H2659.73C2626.5 929.047 2600.48 919.158 2581.67 899.381C2563.03 879.441 2553.71 854.314 2553.71 824C2553.71 793.686 2564.49 768.64 2586.05 748.862C2607.61 728.923 2637.84 718.953 2676.75 718.953C2702.69 718.953 2726.84 722.52 2749.21 729.652C2771.75 736.785 2790.47 746.836 2805.38 759.805L2791.77 770.747C2778.47 759.886 2761.78 751.456 2741.67 745.458C2721.57 739.46 2699.93 736.461 2676.75 736.461C2642.54 736.461 2616.36 744.647 2598.21 761.021C2580.21 777.394 2571.22 798.387 2571.22 824C2571.22 849.451 2578.84 870.444 2594.07 886.979C2609.31 903.353 2631.2 911.539 2659.73 911.539ZM2659.73 946.555H2686.48C2698.96 946.555 2707.96 949.797 2713.47 956.281C2718.98 962.766 2721.74 971.195 2721.74 981.57C2721.74 1004.91 2704.31 1016.59 2669.46 1016.59C2636.55 1016.59 2611.83 1011.72 2595.29 1002L2609.39 991.297C2620.74 996.484 2640.76 999.078 2669.46 999.078C2683.4 999.078 2692.72 997.538 2697.42 994.458C2702.28 991.378 2704.71 987.082 2704.71 981.57C2704.71 976.221 2703.34 972.006 2700.58 968.926C2697.99 965.684 2693.12 964.062 2685.99 964.062H2659.73C2637.36 964.062 2617.09 960.415 2598.94 953.12C2580.94 945.825 2566.11 935.774 2554.44 922.968C2542.93 910.161 2534.09 895.328 2527.93 878.469C2521.77 861.609 2518.69 843.453 2518.69 824C2518.69 808.438 2520.88 793.686 2525.26 779.744C2529.64 765.803 2536.2 752.996 2544.96 741.324C2553.87 729.652 2564.49 719.602 2576.81 711.172C2589.29 702.58 2604.04 695.934 2621.07 691.232C2638.25 686.369 2656.81 683.938 2676.75 683.938C2708.04 683.938 2737.3 688.72 2764.53 698.284C2791.77 707.687 2814.46 720.898 2832.62 737.92L2818.51 748.376C2801.98 733.462 2781.31 721.952 2756.51 713.847C2731.71 705.579 2705.12 701.445 2676.75 701.445C2654.54 701.445 2634.44 704.688 2616.45 711.172C2598.61 717.494 2583.86 726.248 2572.19 737.434C2560.68 748.619 2551.76 761.588 2545.44 776.34C2539.28 791.092 2536.2 806.979 2536.2 824C2536.2 846.857 2540.82 867.445 2550.06 885.764C2559.3 904.082 2573.41 918.834 2592.37 930.02C2611.34 941.043 2633.79 946.555 2659.73 946.555Z" fill="black"/>
<path d="M207.841 344.297H373.134C398.271 344.297 419.472 336.172 436.737 319.922C454.257 303.672 463.017 280.566 463.017 250.605C463.017 228.516 453.876 208.711 435.595 191.191C417.313 173.418 396.493 164.531 373.134 164.531H137.763V658.125H110.341V137.109H373.134C404.11 137.109 431.405 148.662 455.019 171.768C478.632 194.619 490.438 220.898 490.438 250.605C490.438 287.168 479.013 316.494 456.161 338.584C433.31 360.674 405.634 371.719 373.134 371.719H207.841V344.297ZM207.841 399.141H373.134C412.743 399.141 446.767 385.303 475.204 357.627C503.642 329.697 517.86 294.023 517.86 250.605C517.86 213.281 503.261 180.527 474.062 152.344C445.116 123.906 411.474 109.688 373.134 109.688H82.9189V658.125H55.4971V82.2656H373.134C403.349 82.2656 431.659 90.0098 458.065 105.498C484.726 120.986 505.927 141.807 521.669 167.959C537.411 193.857 545.282 221.406 545.282 250.605C545.282 300.625 528.271 342.52 494.247 376.289C460.478 409.805 420.106 426.562 373.134 426.562H207.841V399.141ZM207.841 453.984H373.134C408.681 453.984 441.688 445.225 472.157 427.705C502.626 410.186 527.001 385.811 545.282 354.58C563.563 323.096 572.704 288.438 572.704 250.605C572.704 216.328 563.563 184.209 545.282 154.248C527.255 124.033 502.88 99.9121 472.157 81.8848C441.435 63.8574 408.427 54.8438 373.134 54.8438H28.0752V658.125H0.65332V27.4219H373.134C412.997 27.4219 450.448 37.7051 485.487 58.2715C520.526 78.584 548.329 106.006 568.896 140.537C589.716 174.814 600.126 211.504 600.126 250.605C600.126 295.801 590.351 335.537 570.8 369.814C551.503 404.092 525.224 430.879 491.962 450.176L562.802 658.125H533.856L466.063 463.125C455.907 467.188 448.163 469.98 442.831 471.504L506.435 658.125H477.489L415.409 477.979C413.124 478.486 404.999 479.375 391.034 480.645L450.067 658.125H421.122L362.851 481.406H338.095L393.7 658.125H364.755L308.769 481.406H207.841V453.984ZM192.606 658.125H165.185V191.953H373.134C390.146 191.953 404.745 197.793 416.933 209.473C429.374 220.898 435.595 234.609 435.595 250.605C435.595 294.785 414.774 316.875 373.134 316.875H207.841V289.453H373.134C384.052 289.453 392.558 286.66 398.651 281.074C404.999 275.234 408.173 265.078 408.173 250.605C408.173 241.719 404.745 234.355 397.89 228.516C391.288 222.422 383.036 219.375 373.134 219.375H192.606V658.125Z" fill="black"/>
<path d="M795.888 658.125H768.466V27.4219H795.888V658.125ZM741.044 658.125H713.622V27.4219H741.044V658.125ZM686.2 658.125H658.778V27.4219H686.2V658.125ZM850.731 521.016H1142.47V548.438H850.731V575.859H1142.47V603.281H850.731V630.703H1142.47V658.125H823.31V27.4219H1142.47V54.8438H850.731V82.2656H1142.47V109.688H850.731V137.109H1142.47V164.531H850.731V274.219H1000.41V301.641H850.731V329.062H1000.41V356.484H850.731V383.906H1000.41V411.328H850.731V521.016Z" fill="black"/>
<path d="M1714.14 328.682H1741.56V658.125H1714.14V328.682ZM1823.83 328.682H1851.25V658.125H1823.83V328.682ZM1768.98 328.682H1796.41V658.125H1768.98V328.682ZM1686.72 328.682V658.125C1638.48 676.406 1588.46 685.547 1536.66 685.547C1491.72 685.547 1448.68 677.295 1407.55 660.791C1366.42 644.287 1330.23 621.436 1299 592.236C1267.77 562.783 1242.76 526.475 1223.97 483.311C1205.44 439.893 1196.17 393.047 1196.17 342.773C1196.17 296.309 1205.18 252.002 1223.21 209.854C1241.49 167.451 1265.87 131.016 1296.34 100.547C1327.06 69.8242 1363.5 45.4492 1405.64 27.4219C1448.05 9.14062 1492.48 0 1538.94 0C1596.83 0 1650.66 13.457 1700.43 40.3711C1750.19 67.2852 1790.82 103.848 1822.3 150.059L1799.45 164.912C1770.51 122.51 1733.06 88.9941 1687.1 64.3652C1641.4 39.7363 1592.01 27.4219 1538.94 27.4219C1496.29 27.4219 1455.41 35.8008 1416.31 52.5586C1377.46 69.0625 1343.94 91.4062 1315.76 119.59C1287.58 147.773 1265.11 181.416 1248.35 220.518C1231.84 259.365 1223.59 300.117 1223.59 342.773C1223.59 388.73 1232.1 431.641 1249.11 471.504C1266.38 511.367 1289.23 544.756 1317.67 571.67C1346.36 598.584 1379.62 619.785 1417.45 635.273C1455.28 650.508 1494.64 658.125 1535.52 658.125C1578.43 658.125 1619.69 651.396 1659.3 637.939V611.66C1621.46 624.355 1581.73 630.703 1540.09 630.703C1509.87 630.703 1480.42 626.514 1451.73 618.135C1423.29 609.502 1396.88 596.934 1372.51 580.43C1348.39 563.672 1327.19 543.867 1308.91 521.016C1290.88 497.91 1276.66 471.123 1266.25 440.654C1256.09 409.932 1251.01 377.305 1251.01 342.773C1251.01 290.723 1263.84 242.607 1289.48 198.428C1315.38 154.248 1350.42 119.336 1394.6 93.6914C1438.78 67.793 1486.89 54.8438 1538.94 54.8438C1587.69 54.8438 1633.02 66.2695 1674.91 89.1211C1716.81 111.719 1750.96 142.441 1777.36 181.289L1754.51 196.143C1730.64 161.104 1699.67 133.428 1661.58 113.115C1623.75 92.5488 1582.87 82.2656 1538.94 82.2656C1503.65 82.2656 1469.88 89.1211 1437.64 102.832C1405.39 116.543 1377.59 135.078 1354.23 158.438C1331.12 181.543 1312.71 209.219 1299 241.465C1285.29 273.711 1278.44 307.48 1278.44 342.773C1278.44 374.512 1283.01 404.346 1292.15 432.275C1301.54 459.951 1314.36 484.199 1330.61 505.02C1347.12 525.586 1366.29 543.359 1388.12 558.34C1409.96 573.066 1433.7 584.238 1459.34 591.855C1485.24 599.473 1511.78 603.281 1538.94 603.281C1581.09 603.281 1621.21 596.172 1659.3 581.953V554.531C1621.72 569.004 1582.49 576.24 1541.61 576.24C1510.63 576.24 1481.05 571.035 1452.87 560.625C1424.69 549.961 1399.55 534.98 1377.46 515.684C1355.62 496.387 1338.23 471.758 1325.28 441.797C1312.33 411.836 1305.86 378.828 1305.86 342.773C1305.86 300.625 1316.27 261.65 1337.09 225.85C1357.91 190.049 1386.22 161.738 1422.02 140.918C1457.82 120.098 1496.8 109.688 1538.94 109.688C1578.3 109.688 1614.86 118.828 1648.63 137.109C1682.66 155.391 1710.33 180.273 1731.66 211.758L1708.81 226.611C1690.02 199.189 1665.64 177.48 1635.68 161.484C1605.98 145.234 1573.73 137.109 1538.94 137.109C1501.62 137.109 1467.22 146.377 1435.73 164.912C1404.25 183.193 1379.24 208.076 1360.7 239.561C1342.42 271.045 1333.28 305.449 1333.28 342.773C1333.28 368.672 1336.96 392.793 1344.33 415.137C1351.69 437.48 1361.84 456.777 1374.79 473.027C1387.74 489.277 1402.85 503.115 1420.12 514.541C1437.64 525.967 1456.42 534.6 1476.48 540.439C1496.54 546.025 1517.36 548.818 1538.94 548.818C1581.85 548.818 1621.97 540.312 1659.3 523.301V497.021C1623.24 513.018 1584.27 521.016 1542.37 521.016C1518.25 521.016 1495.53 517.334 1474.2 509.971C1452.87 502.607 1433.57 491.816 1416.31 477.598C1399.3 463.379 1385.71 444.717 1375.56 421.611C1365.65 398.252 1360.7 371.973 1360.7 342.773C1360.7 318.652 1365.4 295.674 1374.79 273.838C1384.19 251.748 1396.88 232.705 1412.88 216.709C1428.88 200.713 1447.79 188.018 1469.63 178.623C1491.72 169.229 1514.82 164.531 1538.94 164.531C1569.16 164.531 1597.22 171.641 1623.11 185.859C1649.01 199.824 1670.09 218.867 1686.34 242.988L1663.87 257.842C1650.16 237.529 1632.25 221.533 1610.17 209.854C1588.33 197.92 1564.59 191.953 1538.94 191.953C1497.3 191.953 1461.76 206.68 1432.3 236.133C1402.85 265.586 1388.12 301.133 1388.12 342.773C1388.12 368.418 1392.31 391.143 1400.69 410.947C1409.07 430.498 1420.5 446.24 1434.97 458.174C1449.7 469.854 1465.95 478.74 1483.72 484.834C1501.75 490.674 1521.04 493.594 1541.61 493.594C1583.76 493.594 1622.99 484.834 1659.3 467.314V328.682H1686.72Z" fill="black"/>
<path d="M2422.54 328.682H2449.96V658.125H2422.54V328.682ZM2532.23 328.682H2559.65V658.125H2532.23V328.682ZM2477.38 328.682H2504.8V658.125H2477.38V328.682ZM2395.12 328.682V658.125C2346.87 676.406 2296.85 685.547 2245.06 685.547C2200.12 685.547 2157.08 677.295 2115.95 660.791C2074.81 644.287 2038.63 621.436 2007.4 592.236C1976.17 562.783 1951.16 526.475 1932.37 483.311C1913.84 439.893 1904.57 393.047 1904.57 342.773C1904.57 296.309 1913.58 252.002 1931.61 209.854C1949.89 167.451 1974.27 131.016 2004.74 100.547C2035.46 69.8242 2071.89 45.4492 2114.04 27.4219C2156.44 9.14062 2200.88 0 2247.34 0C2305.23 0 2359.06 13.457 2408.83 40.3711C2458.59 67.2852 2499.22 103.848 2530.7 150.059L2507.85 164.912C2478.91 122.51 2441.45 88.9941 2395.5 64.3652C2349.79 39.7363 2300.41 27.4219 2247.34 27.4219C2204.69 27.4219 2163.81 35.8008 2124.71 52.5586C2085.86 69.0625 2052.34 91.4062 2024.16 119.59C1995.98 147.773 1973.5 181.416 1956.75 220.518C1940.24 259.365 1931.99 300.117 1931.99 342.773C1931.99 388.73 1940.5 431.641 1957.51 471.504C1974.77 511.367 1997.63 544.756 2026.06 571.67C2054.75 598.584 2088.02 619.785 2125.85 635.273C2163.68 650.508 2203.04 658.125 2243.92 658.125C2286.83 658.125 2328.08 651.396 2367.69 637.939V611.66C2329.86 624.355 2290.13 630.703 2248.49 630.703C2218.27 630.703 2188.82 626.514 2160.13 618.135C2131.69 609.502 2105.28 596.934 2080.91 580.43C2056.79 563.672 2035.58 543.867 2017.3 521.016C1999.28 497.91 1985.06 471.123 1974.65 440.654C1964.49 409.932 1959.41 377.305 1959.41 342.773C1959.41 290.723 1972.24 242.607 1997.88 198.428C2023.78 154.248 2058.82 119.336 2103 93.6914C2147.18 67.793 2195.29 54.8438 2247.34 54.8438C2296.09 54.8438 2341.42 66.2695 2383.31 89.1211C2425.2 111.719 2459.35 142.441 2485.76 181.289L2462.91 196.143C2439.04 161.104 2408.07 133.428 2369.98 113.115C2332.15 92.5488 2291.27 82.2656 2247.34 82.2656C2212.05 82.2656 2178.28 89.1211 2146.03 102.832C2113.79 116.543 2085.99 135.078 2062.63 158.438C2039.52 181.543 2021.11 209.219 2007.4 241.465C1993.69 273.711 1986.83 307.48 1986.83 342.773C1986.83 374.512 1991.41 404.346 2000.55 432.275C2009.94 459.951 2022.76 484.199 2039.01 505.02C2055.52 525.586 2074.69 543.359 2096.52 558.34C2118.36 573.066 2142.1 584.238 2167.74 591.855C2193.64 599.473 2220.17 603.281 2247.34 603.281C2289.49 603.281 2329.61 596.172 2367.69 581.953V554.531C2330.12 569.004 2290.89 576.24 2250.01 576.24C2219.03 576.24 2189.45 571.035 2161.27 560.625C2133.08 549.961 2107.95 534.98 2085.86 515.684C2064.02 496.387 2046.63 471.758 2033.68 441.797C2020.73 411.836 2014.26 378.828 2014.26 342.773C2014.26 300.625 2024.67 261.65 2045.49 225.85C2066.31 190.049 2094.62 161.738 2130.42 140.918C2166.22 120.098 2205.19 109.688 2247.34 109.688C2286.7 109.688 2323.26 118.828 2357.03 137.109C2391.05 155.391 2418.73 180.273 2440.06 211.758L2417.21 226.611C2398.42 199.189 2374.04 177.48 2344.08 161.484C2314.37 145.234 2282.13 137.109 2247.34 137.109C2210.02 137.109 2175.61 146.377 2144.13 164.912C2112.65 183.193 2087.64 208.076 2069.1 239.561C2050.82 271.045 2041.68 305.449 2041.68 342.773C2041.68 368.672 2045.36 392.793 2052.72 415.137C2060.09 437.48 2070.24 456.777 2083.19 473.027C2096.14 489.277 2111.25 503.115 2128.51 514.541C2146.03 525.967 2164.82 534.6 2184.88 540.439C2204.94 546.025 2225.76 548.818 2247.34 548.818C2290.25 548.818 2330.37 540.312 2367.69 523.301V497.021C2331.64 513.018 2292.67 521.016 2250.77 521.016C2226.65 521.016 2203.92 517.334 2182.6 509.971C2161.27 502.607 2141.97 491.816 2124.71 477.598C2107.69 463.379 2094.11 444.717 2083.95 421.611C2074.05 398.252 2069.1 371.973 2069.1 342.773C2069.1 318.652 2073.8 295.674 2083.19 273.838C2092.59 251.748 2105.28 232.705 2121.28 216.709C2137.27 200.713 2156.19 188.018 2178.03 178.623C2200.12 169.229 2223.22 164.531 2247.34 164.531C2277.56 164.531 2305.61 171.641 2331.51 185.859C2357.41 199.824 2378.49 218.867 2394.74 242.988L2372.26 257.842C2358.55 237.529 2340.65 221.533 2318.56 209.854C2296.73 197.92 2272.99 191.953 2247.34 191.953C2205.7 191.953 2170.16 206.68 2140.7 236.133C2111.25 265.586 2096.52 301.133 2096.52 342.773C2096.52 368.418 2100.71 391.143 2109.09 410.947C2117.47 430.498 2128.9 446.24 2143.37 458.174C2158.09 469.854 2174.34 478.74 2192.12 484.834C2210.15 490.674 2229.44 493.594 2250.01 493.594C2292.16 493.594 2331.39 484.834 2367.69 467.314V328.682H2395.12Z" fill="black"/>
<path d="M2791.59 27.4219H2819.01V658.125H2791.59V27.4219ZM2736.75 27.4219H2764.17V658.125H2736.75V27.4219ZM2681.9 27.4219H2709.33V658.125H2681.9V27.4219ZM2627.06 27.4219H2654.48V658.125H2627.06V27.4219Z" fill="black"/>
</svg>
