<?xml version="1.0" encoding="UTF-8"?>
<svg width="1641px" height="196px" viewBox="0 0 1641 196" version="1.1" xmlns="http://www.w3.org/2000/svg" xmlns:xlink="http://www.w3.org/1999/xlink">
    <title>Reggi Roomers</title>
    <g id="Page-1" stroke="none" stroke-width="1" fill="none" fill-rule="evenodd">
        <g id="Reggi-Roomers" transform="translate(0.75, 0.591)" fill="#D4B254" fill-rule="nonzero">
            <path d="M116.172361,124.24651 C135.95986,111.02401 148.539862,72.5790102 121.83486,35.3040087 C99.4623585,4.03150962 73.7898579,-5.22349145 46.1148586,21.5690081 C37.8248577,13.1615069 14.7948589,10.9990084 6.05985831,42.9515078 C-2.96764184,77.8240092 -1.89014245,114.546509 9.16735648,148.82901 C20.2698574,181.894009 50.8398571,189.194008 64.192358,173.106507 C54.7973575,164.026505 44.022356,147.506504 40.272356,121.941506 C36.3623562,122.871506 32.3073559,123.026505 28.3373546,122.399006 C27.642355,122.324005 27.0448551,121.876507 26.7773533,121.231507 C26.5098514,120.586506 26.614851,119.846504 27.052351,119.304005 C27.4873524,118.759007 28.1873531,118.496506 28.8748531,118.619007 C38.1573543,119.941506 46.6773548,117.454006 48.9848537,109.716507 C49.1223545,109.004006 49.6548557,108.429005 50.3573551,108.239006 C51.0573559,108.046505 51.8073559,108.271504 52.289854,108.816502 C52.7723522,109.3615 52.9023533,110.133999 52.6248531,110.8065 C51.3273525,115.209 48.1423511,118.808998 43.9298496,120.633999 C48.5423489,153.563999 65.1673489,171.031498 74.757349,176.436497 C74.9148502,176.523998 75.0573521,176.633999 75.1823521,176.764 C85.3373508,182.659001 97.3673496,184.4315 108.792349,181.718998 C121.694849,178.296498 137.67235,169.338997 136.54735,151.901497 C135.779848,139.478996 127.807348,128.658997 116.17235,124.246498 L116.172361,124.24651 Z M86.6648502,80.7614977 C85.6248493,86.2164995 83.1198482,91.2864992 79.4148464,95.424 C79.0498447,95.7765009 78.5598431,95.969002 78.0523434,95.9593746 C77.5448437,95.9465029 77.0623455,95.7315028 76.7148456,95.3615038 C75.9873447,94.5915034 76.0123463,93.3765032 76.774847,92.639004 C79.9423466,89.0265047 82.0723476,84.6265032 82.944849,79.9040034 C85.4248485,69.9040034 83.2973499,59.3190043 77.1473484,51.0540049 C76.4998493,50.2140047 76.6498508,49.0065043 77.4848499,48.3490031 C77.882349,48.0340044 78.3898487,47.8915026 78.8923473,47.9540026 C79.394846,48.0165026 79.8523464,48.2790034 80.1623478,48.6790049 C87.0173473,57.8640063 89.4023456,69.6340067 86.6648464,80.7615053 L86.6648502,80.7614977 Z" id="Shape"></path>
            <path d="M256.325121,93.2140086 C251.037622,105.511509 241.762621,115.66901 229.997622,122.054009 C213.572622,131.80151 193.120123,131.736511 176.760122,121.879013 C175.86762,121.311512 175.602621,120.124012 176.172621,119.23151 C176.740122,118.33651 177.925123,118.074009 178.820124,118.64151 C194.002623,127.741509 212.957624,127.759011 228.157625,118.686512 C244.340124,110.156513 255.047625,93.9515116 256.547625,75.7190134 C256.565126,75.4440119 256.642626,75.1790125 256.772627,74.9365122 C256.187628,56.4690134 247.895128,39.0890124 233.910128,27.0140116 C209.180128,7.65651344 175.692629,18.7340128 156.41263,47.449013 C139.615129,72.4665148 134.94013,104.581516 149.25263,138.041516 C158.20513,158.981514 181.620131,176.289013 202.000132,177.094013 C237.23263,178.486515 262.60763,160.821514 268.802629,122.369015 C272.075129,102.079014 261.057627,95.1790125 256.325129,93.2140124 L256.325121,93.2140086 Z M204.985128,66.636513 C205.520128,65.7265131 206.692629,65.4215128 207.602629,65.9565127 C218.932631,72.636513 219.145132,87.2165148 214.152632,97.199013 C213.665133,98.1090128 212.540133,98.466511 211.615133,98.0040095 C210.692633,97.5415079 210.302633,96.4290087 210.737635,95.4915087 C214.917635,87.1315081 215.145136,74.8565066 205.660135,69.2440073 C205.225134,68.9890063 204.910135,68.5690081 204.782637,68.0790064 C204.655138,67.5915072 204.727636,67.0715067 204.985136,66.6365053 L204.985128,66.636513 Z" id="Shape"></path>
            <path d="M381.871462,35.9565089 C378.333963,26.2015078 369.821463,19.0990069 359.588964,17.3665087 C341.781466,14.4615099 323.513964,17.7140086 307.801462,26.5865099 C291.111464,35.8790095 279.078962,51.7390101 274.62396,70.3165095 C273.09646,76.3365099 270.063959,103.706509 284.313959,119.429009 C288.156458,116.546509 292.671457,114.691509 297.431456,114.041508 C306.636457,113.354008 315.726458,116.419007 322.638956,122.536507 C335.471457,130.179009 346.961458,126.519009 353.64646,118.799008 C354.336458,118.001507 355.54146,117.914006 356.336458,118.604004 C357.133959,119.294003 357.22146,120.499005 356.531462,121.294003 C350.148962,128.981503 339.916464,132.311505 330.231462,129.851506 C335.618963,135.681507 339.518965,142.726506 341.601465,150.386505 C341.801466,151.421505 341.121466,152.424004 340.083967,152.621502 C339.046469,152.821503 338.046469,152.141503 337.846468,151.106503 C335.383966,142.634003 330.658968,134.996502 324.17647,129.014004 C323.006472,127.874005 321.776472,126.774006 320.506472,125.741505 C319.486471,125.121506 318.458971,124.439007 317.42647,123.699005 C317.201471,123.534004 317.011473,123.321503 316.876474,123.074002 C311.386473,119.104 304.646471,117.246502 297.896471,117.844002 C289.71147,118.884003 281.376471,124.601502 273.73147,137.499001 C271.666471,144.6315 272.21147,152.266499 275.268969,159.031498 C285.026468,177.998997 297.471468,188.328999 310.213968,192.126499 C323.026468,196.398998 337.031469,195.229 348.956469,188.891499 C358.85647,183.588997 367.26647,175.891499 373.41897,166.501499 C385.59897,146.784001 391.526472,123.8415 390.421473,100.691498 C390.378973,99.8839991 392.803972,63.6764986 381.871473,35.9564974 L381.871462,35.9565089 Z M331.093973,97.5289957 C330.806475,97.9939959 330.316473,98.3014948 329.768972,98.3564951 C329.223974,98.4114954 328.683973,98.2114947 328.306475,97.8114931 C323.186476,92.6514933 320.001474,85.8864939 319.288973,78.6539957 C318.128973,71.7114947 320.078974,64.6114962 324.616472,59.2339976 C325.008974,58.8414957 325.558973,58.6489947 326.108973,58.708996 C326.661474,58.771496 327.153975,59.0814974 327.448973,59.5539973 C328.213972,60.5289957 328.191473,61.9064944 327.391474,62.8539927 C323.811472,67.1714938 322.298971,72.8364947 323.253973,78.3639948 C323.826471,84.3364947 326.441473,89.9314959 330.656473,94.203995 C331.558973,95.0764963 331.738974,96.453995 331.093973,97.5289957 Z" id="Shape"></path>
            <path d="M505.621462,35.9565089 C502.083963,26.2015078 493.571463,19.0990069 483.338964,17.3665087 C465.531466,14.4615099 447.263964,17.7140086 431.551462,26.5865099 C414.861464,35.8790095 402.828962,51.7390101 398.37396,70.3165095 C396.84646,76.3365099 393.813959,103.706509 408.063959,119.429009 C411.906458,116.546509 416.421457,114.691509 421.181456,114.041508 C430.386457,113.354008 439.476458,116.419007 446.388956,122.536507 C459.221457,130.179009 470.711458,126.519009 477.39646,118.799008 C478.086458,118.001507 479.29146,117.914006 480.086458,118.604004 C480.883959,119.294003 480.97146,120.499005 480.281462,121.294003 C473.898962,128.981503 463.666464,132.311505 453.981462,129.851506 C459.368963,135.681507 463.268965,142.726506 465.351465,150.386505 C465.551466,151.421505 464.871466,152.424004 463.833967,152.621502 C462.796469,152.821503 461.796469,152.141503 461.596468,151.106503 C459.133966,142.634003 454.408968,134.996502 447.92647,129.014004 C446.756472,127.874005 445.526472,126.774006 444.256472,125.741505 C443.236471,125.121506 442.208971,124.439007 441.17647,123.699005 C440.951471,123.534004 440.761473,123.321503 440.626474,123.074002 C435.136473,119.104 428.396471,117.246502 421.646471,117.844002 C413.46147,118.884003 405.126471,124.601502 397.48147,137.499001 C395.416471,144.6315 395.96147,152.266499 399.018969,159.031498 C408.776468,177.998997 421.221468,188.328999 433.963968,192.126499 C446.776468,196.398998 460.781469,195.229 472.706469,188.891499 C482.60647,183.588997 491.01647,175.891499 497.16897,166.501499 C509.34897,146.784001 515.276472,123.8415 514.171473,100.691498 C514.128973,99.8839991 516.553972,63.6764986 505.621473,35.9564974 L505.621462,35.9565089 Z M454.843973,97.5289957 C454.556475,97.9939959 454.066473,98.3014948 453.518972,98.3564951 C452.973974,98.4114954 452.433973,98.2114947 452.056475,97.8114931 C446.936476,92.6514933 443.751474,85.8864939 443.038973,78.6539957 C441.878973,71.7114947 443.828974,64.6114962 448.366472,59.2339976 C448.758974,58.8414957 449.308973,58.6489947 449.858973,58.708996 C450.411474,58.771496 450.903975,59.0814974 451.198973,59.5539973 C451.963972,60.5289957 451.941473,61.9064944 451.141474,62.8539927 C447.561472,67.1714938 446.048971,72.8364947 447.003973,78.3639948 C447.576471,84.3364947 450.191473,89.9314959 454.406473,94.203995 C455.308973,95.0764963 455.488974,96.453995 454.843973,97.5289957 Z" id="Shape"></path>
            <path d="M573.171968,65.2665064 C557.26697,59.706505 524.644468,56.4140055 521.326967,97.5690043 C518.381968,134.176502 526.991968,172.556504 540.746969,176.631504 C547.414469,179.164006 562.361967,178.914006 575.729467,172.906506 C592.551966,165.344006 574.891966,123.816506 580.684465,117.576504 C593.544466,100.154003 586.191965,69.826504 573.171965,65.2665026 L573.171968,65.2665064 Z M564.294466,1.50150321 C543.256968,-5.2959974 518.101969,12.1415026 521.241968,30.5840037 C523.216967,42.1790049 535.146967,50.4815066 544.154467,54.8115084 C578.876966,71.4940073 599.416967,12.8465082 564.294466,1.50150703 L564.294466,1.50150321 Z" id="Shape"></path>
            <path d="M789.922361,124.24651 C809.70986,111.02401 822.289862,72.5790102 795.58486,35.3040087 C773.212358,4.03150962 747.539858,-5.22349145 719.864859,21.5690081 C711.574858,13.1615069 688.544859,10.9990084 679.809858,42.9515078 C670.782358,77.8240092 671.859858,114.546509 682.917356,148.82901 C694.019857,181.894009 724.589857,189.194008 737.942358,173.106507 C728.547358,164.026505 717.772356,147.506504 714.022356,121.941506 C710.112356,122.871506 706.057356,123.026505 702.087355,122.399006 C701.392355,122.324005 700.794855,121.876507 700.527353,121.231507 C700.259851,120.586506 700.364851,119.846504 700.802351,119.304005 C701.237352,118.759007 701.937353,118.496506 702.624853,118.619007 C711.907354,119.941506 720.427355,117.454006 722.734854,109.716507 C722.872354,109.004006 723.404856,108.429005 724.107355,108.239006 C724.807356,108.046505 725.557356,108.271504 726.039854,108.816502 C726.522352,109.3615 726.652353,110.133999 726.374853,110.8065 C725.077353,115.209 721.892351,118.808998 717.67985,120.633999 C722.292349,153.563999 738.917349,171.031498 748.507349,176.436497 C748.66485,176.523998 748.807352,176.633999 748.932352,176.764 C759.087351,182.659001 771.11735,184.4315 782.542349,181.718998 C795.444849,178.296498 811.42235,169.338997 810.29735,151.901497 C809.529848,139.478996 801.557348,128.658997 789.92235,124.246498 L789.922361,124.24651 Z M760.41485,80.7614977 C759.374849,86.2164995 756.869848,91.2864992 753.164846,95.424 C752.799845,95.7765009 752.309843,95.969002 751.802343,95.9593746 C751.294844,95.9465029 750.812345,95.7315028 750.464846,95.3615038 C749.737345,94.5915034 749.762346,93.3765032 750.524847,92.639004 C753.692347,89.0265047 755.822348,84.6265032 756.694849,79.9040034 C759.174849,69.9040034 757.04735,59.3190043 750.897348,51.0540049 C750.249849,50.2140047 750.399851,49.0065043 751.23485,48.3490031 C751.632349,48.0340044 752.139849,47.8915026 752.642347,47.9540026 C753.144846,48.0165026 753.602346,48.2790034 753.912348,48.6790049 C760.767347,57.8640063 763.152346,69.6340067 760.414846,80.7615053 L760.41485,80.7614977 Z" id="Shape"></path>
            <path d="M955.211817,52.5440066 C935.051817,21.4490053 875.506819,3.13900397 834.366819,44.8840029 C809.024321,70.5915034 812.576822,106.549004 818.611822,124.589005 C842.341822,195.561505 946.01182,196.184006 964.59432,125.894005 C969.866819,105.966503 969.19932,74.1090052 955.211821,52.5440066 L955.211817,52.5440066 Z M907.911821,87.4365084 C903.666822,88.3165095 899.586821,89.8490107 895.814322,91.9790118 C900.869322,98.8790133 904.909323,106.466515 907.806822,114.516514 C907.949324,115.081513 907.849325,115.681511 907.526827,116.16901 C907.206827,116.65651 906.694326,116.986511 906.119326,117.076512 C904.906824,117.411511 903.634325,116.78151 903.169325,115.611511 C900.411825,107.96151 896.564325,100.74651 891.751825,94.1915095 C884.131826,98.2865107 877.219328,103.581509 871.281828,109.87151 C870.456827,110.841511 869.056826,111.084011 867.951826,110.446511 C867.439325,110.189011 867.069326,109.716511 866.941828,109.15651 C866.811827,108.599011 866.939325,108.011509 867.289324,107.556507 C873.614325,100.791508 880.991823,95.0965082 889.136824,90.689007 C888.579325,89.9690058 888.016825,89.2615053 887.454325,88.5740053 C884.159327,84.0290072 879.904325,80.2640078 874.991827,77.5440066 C874.444326,77.3665049 873.999327,76.956505 873.776827,76.4240038 C873.554327,75.8915026 873.576826,75.2865031 873.836824,74.7715037 C874.509325,73.6965029 875.864325,73.2715037 877.031824,73.769005 C881.126825,75.7915041 884.779325,78.6115038 887.769327,82.0640032 C889.591825,83.9915049 891.411825,86.1615031 893.206823,88.4715044 C897.559324,86.0490038 902.256823,84.3115046 907.139322,83.3215029 C908.366823,83.0840037 909.569323,83.8390047 909.889322,85.0490038 C909.959322,85.6315043 909.786821,86.2165034 909.411821,86.6665041 C909.036821,87.1165049 908.494322,87.3965037 907.911821,87.4365046 L907.911821,87.4365084 Z" id="Shape"></path>
            <path d="M1111.21182,52.5440066 C1091.05182,21.4490053 1031.50682,3.13900397 990.366819,44.8840029 C965.024321,70.5915034 968.576822,106.549004 974.611822,124.589005 C998.341822,195.561505 1102.01182,196.184006 1120.59432,125.894005 C1125.86682,105.966503 1125.19932,74.1090052 1111.21182,52.5440066 L1111.21182,52.5440066 Z M1063.91182,87.4365084 C1059.66682,88.3165095 1055.58682,89.8490107 1051.81432,91.9790118 C1056.86932,98.8790133 1060.90932,106.466515 1063.80682,114.516514 C1063.94932,115.081513 1063.84933,115.681511 1063.52683,116.16901 C1063.20683,116.65651 1062.69433,116.986511 1062.11933,117.076512 C1060.90682,117.411511 1059.63433,116.78151 1059.16932,115.611511 C1056.41183,107.96151 1052.56433,100.74651 1047.75183,94.1915095 C1040.13183,98.2865107 1033.21933,103.581509 1027.28183,109.87151 C1026.45683,110.841511 1025.05683,111.084011 1023.95183,110.446511 C1023.43933,110.189011 1023.06933,109.716511 1022.94183,109.15651 C1022.81183,108.599011 1022.93933,108.011509 1023.28932,107.556507 C1029.61432,100.791508 1036.99182,95.0965082 1045.13682,90.689007 C1044.57932,89.9690058 1044.01682,89.2615053 1043.45432,88.5740053 C1040.15933,84.0290072 1035.90433,80.2640078 1030.99183,77.5440066 C1030.44433,77.3665049 1029.99933,76.956505 1029.77683,76.4240038 C1029.55433,75.8915026 1029.57683,75.2865031 1029.83682,74.7715037 C1030.50933,73.6965029 1031.86432,73.2715037 1033.03182,73.769005 C1037.12683,75.7915041 1040.77933,78.6115038 1043.76933,82.0640032 C1045.59183,83.9915049 1047.41183,86.1615031 1049.20682,88.4715044 C1053.55932,86.0490038 1058.25682,84.3115046 1063.13932,83.3215029 C1064.36682,83.0840037 1065.56932,83.8390047 1065.88932,85.0490038 C1065.95932,85.6315043 1065.78682,86.2165034 1065.41182,86.6665041 C1065.03682,87.1165049 1064.49432,87.3965037 1063.91182,87.4365046 L1063.91182,87.4365084 Z" id="Shape"></path>
            <path d="M1174.06323,156.731507 C1165.29573,134.356507 1160.51823,97.3640063 1173.87073,67.0965044 C1174.29823,66.1315043 1175.42573,65.6940043 1176.39073,66.121506 C1177.35573,66.5490076 1177.79323,67.6765063 1177.36573,68.6415064 C1164.43823,97.9140055 1169.12323,133.696507 1177.62073,155.339009 C1179.27573,159.78151 1181.42823,164.021511 1184.03323,167.979012 C1186.84573,171.144013 1190.36323,173.601513 1194.30323,175.151512 C1204.03323,180.014012 1215.83323,177.479012 1222.70823,169.05151 C1218.90073,161.57901 1216.04573,153.65651 1214.21323,145.471508 C1207.94573,119.294007 1207.99073,85.2715075 1221.22073,65.6765063 C1221.82323,64.8390047 1222.98323,64.6315043 1223.83823,65.2090037 C1224.69323,65.7865031 1224.93573,66.9390032 1224.38323,67.8115046 C1211.64823,86.6590044 1211.88573,119.404003 1217.91073,144.584004 C1219.81573,153.371502 1223.03322,161.821503 1227.45572,169.649002 C1229.97072,172.0065 1232.90322,173.871502 1236.10072,175.151501 C1256.61822,185.154 1277.52822,163.456501 1271.67322,137.7915 C1263.39072,101.473999 1274.66822,82.7939989 1270.05572,58.1139986 C1263.52072,23.1539995 1234.74072,17.1614992 1217.99072,20.3214991 C1213.48572,21.1515009 1209.09072,22.4915011 1204.89072,24.3190005 C1195.99572,19.9664995 1185.94322,18.566498 1176.19572,20.3214991 C1155.38072,24.2490008 1134.69322,38.3365023 1129.59822,74.6790011 C1122.31572,126.876499 1137.71572,166.769001 1155.49322,174.5215 C1164.10822,177.3065 1173.55572,174.8615 1179.74072,168.249001 C1177.50322,164.589001 1175.60322,160.734001 1174.06322,156.731503 L1174.06323,156.731507 Z" id="Path"></path>
            <path d="M1392.82512,93.2140086 C1387.53762,105.511509 1378.26262,115.66901 1366.49762,122.054009 C1350.07262,131.80151 1329.62012,131.736511 1313.26012,121.879013 C1312.36762,121.311512 1312.10262,120.124012 1312.67262,119.23151 C1313.24012,118.33651 1314.42512,118.074009 1315.32012,118.64151 C1330.50262,127.741509 1349.45762,127.759011 1364.65763,118.686512 C1380.84012,110.156513 1391.54762,93.9515116 1393.04762,75.7190134 C1393.06513,75.4440119 1393.14263,75.1790125 1393.27263,74.9365122 C1392.68763,56.4690134 1384.39513,39.0890124 1370.41013,27.0140116 C1345.68013,7.65651344 1312.19263,18.7340128 1292.91263,47.449013 C1276.11513,72.4665148 1271.44013,104.581516 1285.75263,138.041516 C1294.70513,158.981514 1318.12013,176.289013 1338.50013,177.094013 C1373.73263,178.486515 1399.10763,160.821514 1405.30263,122.369015 C1408.57513,102.079014 1397.55763,95.1790125 1392.82513,93.2140124 L1392.82512,93.2140086 Z M1341.48513,66.636513 C1342.02013,65.7265131 1343.19263,65.4215128 1344.10263,65.9565127 C1355.43263,72.636513 1355.64513,87.2165148 1350.65263,97.199013 C1350.16513,98.1090128 1349.04013,98.466511 1348.11513,98.0040095 C1347.19263,97.5415079 1346.80263,96.4290087 1347.23763,95.4915087 C1351.41763,87.1315081 1351.64514,74.8565066 1342.16014,69.2440073 C1341.72513,68.9890063 1341.41014,68.5690081 1341.28264,68.0790064 C1341.15514,67.5915072 1341.22764,67.0715067 1341.48514,66.6365053 L1341.48513,66.636513 Z" id="Shape"></path>
            <path d="M1448.24256,75.3515093 C1448.13006,74.3165095 1448.87756,73.3890078 1449.91256,73.2765086 C1450.94506,73.1640093 1451.87256,73.9115107 1451.98506,74.9465105 C1452.98506,83.046509 1455.85506,90.8015101 1460.36756,97.6040118 C1464.28006,102.854012 1469.25006,107.229012 1474.95756,110.441513 C1500.42756,122.984013 1545.06756,80.2490122 1515.18257,40.8515131 C1493.96256,12.8765147 1462.88006,10.954014 1446.56006,32.4215128 C1448.03256,15.8340113 1423.93006,9.84901069 1415.81006,40.9190104 C1408.28757,69.6990092 1407.92507,112.646507 1415.57007,148.946507 C1425.76257,197.336506 1473.38507,187.014008 1472.19007,154.736508 C1472.03257,150.386509 1471.39257,116.519009 1469.25007,111.464009 C1457.23256,103.14151 1449.53507,89.9090121 1448.24257,75.3515131 L1448.24256,75.3515093 Z" id="Path"></path>
            <path d="M1545.50733,102.174008 C1545.95233,102.111508 1546.40733,102.054009 1546.86483,102.004009 C1564.26233,100.201508 1588.96733,110.34401 1601.48483,146.066509 C1601.83233,147.061508 1601.30983,148.151509 1600.31233,148.499008 C1599.31733,148.849007 1598.22733,148.324005 1597.87983,147.329006 C1586.19483,114.001507 1563.48983,104.121506 1547.24733,105.804005 C1542.85233,106.149006 1538.62233,107.644005 1534.98483,110.136505 C1526.11983,118.671505 1523.53483,136.614006 1529.40233,149.051506 C1547.31233,187.031506 1589.17733,185.519005 1611.66483,174.679005 C1623.74983,168.854004 1633.28233,154.251503 1638.07983,135.299004 C1641.60733,123.061505 1638.73983,109.871506 1630.45483,100.201508 C1627.20983,96.4690096 1623.23733,93.4415095 1618.78233,91.2990076 C1615.51233,94.7190058 1611.32233,97.1165049 1606.71983,98.206505 C1600.88483,99.2365038 1594.87733,98.0090029 1589.91233,94.7740023 C1584.46233,91.2340014 1580.33483,85.9865 1578.17983,79.8540003 C1574.65733,71.2365 1573.88983,61.7389986 1575.98233,52.6689989 C1576.32483,51.7064974 1577.35983,51.1839983 1578.33483,51.4839976 C1579.30982,51.7814982 1579.87982,52.7939989 1579.62482,53.7814982 C1577.76482,62.0214999 1578.49732,70.6339991 1581.71982,78.441498 C1583.55982,83.7839968 1587.11732,88.3664973 1591.83482,91.4739954 C1595.99232,94.2189944 1601.03482,95.2889941 1605.94732,94.4664957 C1610.23982,93.396496 1614.09731,91.0264971 1616.98982,87.6789973 C1620.75232,83.4639971 1623.88732,78.7264979 1626.29482,73.6139986 C1628.88482,67.7764971 1630.66732,61.6114962 1631.59482,55.2914965 C1633.64982,34.7889979 1619.71982,21.9114992 1601.54982,21.1390002 C1562.83732,19.4964983 1536.48482,39.9314997 1531.26982,60.9739992 C1527.70232,76.3040011 1533.23732,92.3215029 1545.50732,102.174004 L1545.50733,102.174008 Z" id="Path"></path>
        </g>
    </g>
</svg>